<svg width="69" height="39" viewBox="0 0 69 39" fill="none" xmlns="http://www.w3.org/2000/svg"><path d="M3.75.31A3.39 3.39 0 0 0 .37 3.688v6.367c4.247 1.225 7.213 5.08 7.143 9.463-.07 4.439-3.042 8.276-7.144 9.437v6.36A3.39 3.39 0 0 0 3.75 38.69h8.838l5.945-2.986V3.297L12.587.31H3.75zM29 6h25v28H29z" fill="#FC654C"/><path d="M50.608 20.912l-7.492-5.63a1.028 1.028 0 0 1-.413-.821V9.387a1.318 1.318 0 0 0-2.637 0v5.074a1.02 1.02 0 0 1-.405.821l-7.5 5.61a.724.724 0 0 0-.203.918.717.717 0 0 0 .917.32l5.774-2.478a1.024 1.024 0 0 1 1.427.864l.532 7.011a3.435 3.435 0 0 1-.321 1.731l-.793 1.668h3.802l-.79-1.664a3.434 3.434 0 0 1-.322-1.74l.55-6.987a1.025 1.025 0 0 1 1.43-.86l5.729 2.471a.718.718 0 0 0 .715-1.234z" fill="#fff"/><path d="M65.25.31H26.54l-5.956 2.92v32.54l5.955 2.92h38.71a3.39 3.39 0 0 0 3.382-3.377v-5.327a9.852 9.852 0 0 1 0-19.339v-6.96A3.39 3.39 0 0 0 65.25.31zM51.7 23.8a2.764 2.764 0 0 1-2.619.23l-4.414-1.905-.438 5.558c-.018.24.026.482.13.7l.955 2.013a1.806 1.806 0 0 1-1.634 2.58h-4.57a1.807 1.807 0 0 1-1.633-2.58l.956-2.015a1.39 1.39 0 0 0 .13-.698l-.424-5.58-4.456 1.913a2.772 2.772 0 0 1-2.756-4.765l7.089-5.303v-4.56a3.37 3.37 0 0 1 6.738 0v4.562l7.084 5.324A2.769 2.769 0 0 1 51.7 23.8z" fill="#FC654C"/></svg>