<svg width="75" height="75" viewBox="0 0 75 75" fill="none" xmlns="http://www.w3.org/2000/svg"><path d="M57.672 36.752L52.6 48.162a1.268 1.268 0 0 1-2.14.28 1.267 1.267 0 0 1-.281-.8v-7.606h-3.804a1.268 1.268 0 0 1-1.154-1.788l5.072-11.41a1.257 1.257 0 0 1 1.42-.723 1.268 1.268 0 0 1 1.001 1.242v7.607h3.804a1.268 1.268 0 0 1 1.154 1.788z" fill="#fff"/><path d="M51.446 15.946H17.214a2.554 2.554 0 0 0-2.535 2.536 2.543 2.543 0 0 0 2.535 2.536 1.268 1.268 0 0 1 0 2.536H9.607a2.555 2.555 0 0 0-2.536 2.535 2.543 2.543 0 0 0 2.536 2.536h20.235a1.267 1.267 0 0 1 1.306 1.674 21.843 21.843 0 0 0-.95 3.765 1.278 1.278 0 0 1-1.358 1.065 1.395 1.395 0 0 1-.52-.165h-8.57a2.554 2.554 0 0 0-2.536 2.536 2.543 2.543 0 0 0 2.536 2.536h8.888c.063-.013.14-.026.215-.038a1.246 1.246 0 0 1 1.357 1.014c.203 1.255.517 2.49.938 3.69a1.275 1.275 0 0 1-.431 1.445 1.248 1.248 0 0 1-.976.228H9.607a2.543 2.543 0 0 0-2.536 2.536 2.555 2.555 0 0 0 2.536 2.535h7.607a1.268 1.268 0 0 1 0 2.536 2.543 2.543 0 0 0-2.535 2.536 2.554 2.554 0 0 0 2.535 2.536h34.232a21.554 21.554 0 0 0 0-43.108zm0 38.036A16.482 16.482 0 1 1 67.93 37.5a16.498 16.498 0 0 1-16.483 16.482z" fill="#fff"/><path d="M7.071 40.036a2.536 2.536 0 0 0 0-5.072H4.536a2.536 2.536 0 0 0 0 5.072H7.07z" fill="#fff"/></svg>