<svg width="75" height="75" viewBox="0 0 75 75" fill="none" xmlns="http://www.w3.org/2000/svg"><g clip-path="url(#a)" fill="#fff"><path d="M9.114 43.204h-6.81l-.248.746a2.664 2.664 0 0 0 .647 2.741l7.17 7.17a9.423 9.423 0 0 0 3.664 2.265l10.101 3.367a9.376 9.376 0 0 0 4.133.375l-16.815-15.93a2.668 2.668 0 0 0-1.842-.734z"/><path d="M50.06 31.035a2.692 2.692 0 0 0-.53-.644l-10.439-9.278a2.672 2.672 0 0 0-1.78-.677h-4.658l-3.932 3.134a5.344 5.344 0 0 1-7.925-6.911l.753-1.25-5.749.719a16.02 16.02 0 0 1-4.869-.136l-9.352-1.7a1.309 1.309 0 0 0-1.098.29c-.307.253-.483.63-.481 1.028v23.576c0 .74.6 1.338 1.34 1.339h7.773a5.337 5.337 0 0 1 3.685 1.468l21.617 20.48a5.33 5.33 0 0 0 4.865 1.33l-5.549-7.767a1.34 1.34 0 1 1 2.18-1.557l6.167 8.633 5.747-1.437L40.37 49.25a1.34 1.34 0 1 1 2.297-1.379l7.813 13.022a13.302 13.302 0 0 0 3.385-1.906l2.45-1.906-10.58-17.194a1.34 1.34 0 1 1 2.28-1.403l10.427 16.943.379-.295a5.372 5.372 0 0 0 1.329-6.944L50.06 31.035z"/><path d="M75 23.369a1.339 1.339 0 0 0-1.461-1.334l-6.814.62a12.023 12.023 0 0 1-9.528-3.397l-4.07-2.854a4.027 4.027 0 0 0-.51-.305l-.15-.088-3.607-2.432a14.68 14.68 0 0 0-8.237-2.518H28.936c-.896 0-1.733.447-2.229 1.193l-1.432 2.148c-.005.01-.005.02-.01.029l-2.175 3.61a2.636 2.636 0 0 0 .687 3.482 2.68 2.68 0 0 0 3.275-.049l3.794-3.023v-2.033a1.34 1.34 0 0 1 2.678 0v1.34h3.788a5.352 5.352 0 0 1 3.56 1.352l10.438 9.28c.418.372.775.806 1.059 1.288L62.458 46.83l.003.005 10.904-3.883A2.652 2.652 0 0 0 75 40.483V23.37z"/></g><defs><clipPath id="a"><path fill="#fff" d="M0 0h75v75H0z"/></clipPath></defs></svg>