<svg width="75" height="75" viewBox="0 0 75 75" fill="none" xmlns="http://www.w3.org/2000/svg"><g clip-path="url(#a)"><path d="M31.003 54.242A.024.024 0 0 0 31 54.23c.064.035.101.052.003.012zm-.113-.112c-.101-.018.029.052.113.098-.024-.05-.061-.089-.113-.098zm8.487-19.868l.038.04c.022-.04-.038-.04-.038-.04zM51.1 52.235c.27.037.628.01.883 0h.081c.259 0 .482-.107.89-.332l.032-.017c-.337-.041-.67-.086-1.003-.125-.329-.043-.66-.092-.989-.138.233.18.392.332.326.355-.18.077-.514.225-.22.257zm-1.64-16.569l-.06-.03c-.125.537-.256 1.066-.385 1.594.09.055.026.074.4.09.535.027.163.027.555.027.397 0 .467.042.538-.12.069-.163.095.095.095-.35 0-.446-.207-.63-.351-.746a3.494 3.494 0 0 0-.793-.465zm-2.317 8.49l-.12.4.181-.032s.045.124.117.301c.036-.096.072-.171.072-.171s0-.127-.065-.381c-.012-.042-.094-.083-.185-.117zm1.174-4.004h-.055l-.052.212c-.231.863-.478 1.735-.727 2.612.199.01.384.025.384.025s.224-.095.288-.381c.063-.288.223-.606.223-.606s.055.012.161.032a.992.992 0 0 0 .135-.478c0-.4-.178-.485-.178-.702 0-.224.09-.75.09-.75l-.269.036zM54 52.007c-.175.458-.37.937-.49 1.122-.26.406-.964 1.298-1.336 1.629-.04.04-.11.096-.19.16-.563.458-1.854 1.428-2.147 1.657-.332.258-1.887 1.591-2.072 1.743-.189.147-.484.628-.484.628l-.259.373.114.295s-.224.258-.297.52a.358.358 0 0 1-.06.116 24.37 24.37 0 0 1-6.259 1.639c-.41.854-.826 1.691-1.255 2.518a26.867 26.867 0 0 0 11.728-3.557 26.873 26.873 0 0 0 8.95-8.378c-.9-.038-1.808-.096-2.716-.165a84.636 84.636 0 0 1-3.227-.3zm20.912-4.488c-1.194 4.458-14.174 4.992-30.645 1.7-5.388 15.91-12.337 26.882-16.793 25.688-2.807-.748-4.057-6.193-3.773-14.236.095.052.192.105.287.159a26.806 26.806 0 0 1-9.845-9.852 26.852 26.852 0 0 1-3.558-11.73c.783.408 1.58.802 2.388 1.19 2.885 1.384 5.912 2.638 8.979 3.77h-.006l.007.166-.445.779-.41.262.111.185.076.373h-.222v.812c0 .297.595.411.595.411l-.187.114s.039.188.224.477c.185.296.333.559.41.818.072.258.184 1 .184 1s.482.815.704 1.15c.223.334.667.78.854 1.151.185.37.594.187 1.371.37.778.184 1.113.444 1.113.444s.409.339.667.483c.26.151.52.151 1.225.151.67 0 .233.032 1.058.16l.128.02c.989.15.205.08 1.148.503l.037.018c.228.103.352.16.416.185.072.17.04.493.066.628.037.188.297-.032.482-.032.143 0 .176.107.338.21a.713.713 0 0 0 .181.082c.335.112.407-.112.407-.112l.372.447.297.41-.297.702-.258.26s.036-.334 0-.593c-.039-.261-.26.11-.26.11l-.223.706.816.78.248.223.536.482.032.095.3.866-.037.297.185.48s-.235.097-.448.152a.894.894 0 0 1-.217.034c-.108 0-.24.126-.35.262-.117.145-.208.295-.208.295s.086.164.209.337c.08.109.174.22.274.29.05.036.098.066.145.097.04.006.08.016.118.023a.185.185 0 0 1-.024.041l-.11.189a44.297 44.297 0 0 1-1.195 1.964 27.205 27.205 0 0 1-7.784-2.795c.003.003.007.004.01.01.074 4.862.983 8.009 2.76 8.486 3.377.905 8.84-8.075 13.356-21.207a145.673 145.673 0 0 1-5.778-1.431C14.284 41.504-1.323 32.741.09 27.474c.751-2.809 6.188-4.058 14.235-3.773-.094.16-.182.318-.273.477a26.792 26.792 0 0 1 9.965-10.036 26.78 26.78 0 0 1 13.615-3.606c-.164 0-.33-.005-.493-.003C40.913 3.423 44.718-.662 47.525.09c5.268 1.411 5.053 19.309-.482 39.971a160.927 160.927 0 0 1-1.655 5.72c13.63 2.654 24.141 2.417 25.046-.958.476-1.776-1.799-4.14-5.974-6.636v-.036a27.145 27.145 0 0 1-1.473 8.163 47.742 47.742 0 0 1-3.467.032c-.694-.03-1.4-.065-2.103-.112.124-.435.232-.756.26-.934.031-.223.158-.575.158-.575l-.826-.19-.095-.542-.352-.058-.317.603s-.257.381-.542.54c-.288.16-.669.192-.669.192l.095-.447c-.16-.061-.477.061-.477.061l-.033-.412s-.192-.413-.35-.448c-.16-.032-.415-.383-.415-.383s-.095-.124-.193-.381c-.001-.008-.012-.017-.027-.029l.047-.214s.296-.339.547-.631c.254-.295.34.292.592.507.252.208.168.548.168.548s.169.084.378.084c.213 0 .297.167.297.167l.42.168.425-.468s.081-.294.374-.294c.297 0 .041.38.041.594 0 .21.213 0 .804-.253.587-.252.336-.211.883-.508.548-.294.254-.21.465-.378.214-.167.38-.338.38-.338l.462.292.507-.086.508-.292v.378s-.342.42-.129.72c.216.293.256.212.129.593-.129.378-.038.378 0 .591.032.162.038.178.041.273 1.923-6.291 1.34-13.33-2.209-19.47a24.458 24.458 0 0 0-6.473-7.335 75.02 75.02 0 0 0 .164-2.809 26.841 26.841 0 0 1 8.379 8.948 26.838 26.838 0 0 1 3.606 13.507c0-.129.005-.257.003-.385 7.136 3.769 11.223 7.573 10.468 10.378zM42.593 18.197s.265-.153.397-.208c.13-.057 0-.077-.132-.17-.127-.095-.3.076-.3.076s-.075.075-.152.248a.14.14 0 0 1-.026.035c-.069.09-.151-.14-.165-.263-.021-.128-.513-.038-.494-.038.021 0 .118.246.118.246s.035.225.035.323c0 .095 0 .265.078.377.075.11.288.287.288.287l.146-.096.059-.038.226-.378.188-.17-.266-.231zm-3.032-1.682s.032-.267.178-.238c.15.032.295-.358.295-.358s-.118-.237-.265-.237c-.151 0-.479.03-.479.03l-.089-.179s-.177-.029-.415.06-.297-.12-.297-.12l-.03-.357-.33.088-.236-.206s-.09-.18.058-.18c.15 0 .36.031.36.031l.293-.208-.116-.236.207-.238s-.415-.209-.507-.059c-.089.147-.415.267-.415.267s.03-.089-.15-.328c-.179-.239.087-.358-.298-.266-.228.05-.412.165-.53.25-.081.06-.127.106-.127.106s-.415.09-.445.24c-.032.15.505.238.505.238s.027-.035.067-.08c.081-.085.22-.2.322-.1.148.148.266.329.266.329l-.567.296-.02-.02-.276-.22h-.567l-.268.121-.535.058s.088.268.088.417c0 .148-.238.295-.238.295l-.319-.028-.04-.001-.326.237s-.358.032-.506.15a.217.217 0 0 1-.08.04c-.135.035-.278-.058-.278.14 0 .238.03.356-.15.387a26.161 26.161 0 0 0-.563.118s-.18.088-.328.24c-.149.147-.478.235-.478.235l-.047-.009-.548-.11-.775.33-.02.045-.159.372-.508.06s-.415.208-.445.36c-.016.076-.094.143-.167.194-.068.044-.13.073-.13.073s-.297.121-.447.24c-.15.12-.33.359-.33.359l-.117.264.208.299-.478.06.06.235c.237.236.389.357.536.236.15-.12.061-.205.24-.266.106-.035.29-.1.46-.16.117-.04.223-.082.285-.107.152-.06.39-.266.567-.266.177 0 .358-.034.358-.034l.069-.055.405-.33.478.208.386-.063s0 .098.073.173c.026.03.06.05.107.064.178.06.447.06.447.06s.149-.207.359-.207h.534l.06-.267.34.157.048.022.267.21s-.121.027.179.148a.696.696 0 0 0 .565-.03l.506.123s.03-.474-.12-.474-.446-.15-.446-.15l.329-.12.356-.06.09.388.564-.18-.089-.325.03-.51.538.092.032.355s.104.043.216.073c.126.033.259.039.259-.073 0-.208-.12-.355.03-.355s.447-.092.447-.092l.149-.207.21-.477.238.357.33-.206-.06-.297.716-.327s.415-.058.596-.058c.179 0 .238-.06.238-.06s.118-.24-.06-.24c-.182-.006-.33-.156-.33-.156zm-7.118 11.518l-.296.148.685.328.338.018.258.012s.179-.297.208-.595c.014-.136.044-.2.1-.242.062-.05.159-.08.287-.176.237-.18.178-.237.12-.415-.045-.131-.284-.12-.406-.102a1.06 1.06 0 0 0-.072.013l-.495.248-.04.022-.24-.297-.329.089-.326.326c-.03-.03.208.033.208.033s.09-.033.33 0c.238.031-.06.236-.06.236l-.478.121.208.233zm1.136-6.965l-.405.032h-.011s-.08.424.01.674l.019.041c.086.17.26.338.545.38.118.015.252.01.407-.023.266-.06.35-.075.364-.075l-.037.015s.054-.017.037-.015l.18-.072.23-.092s.386-.239.386-.448c0-.206-.329-.147-.597-.147h-.02c-.248-.002-.222-.04-.336-.326-.12-.299-.12.176-.12.176s-.12-.03-.24-.297-.148-.476-.148-.476l-.106.055-.338.18.088.18.092.238zm-.297 8.546s.12.148.297.387c.08.104.126.072.16 0 .048-.09.084-.24.166-.24.15 0 .03.24.208.205.178-.03.567-.03.567-.03l.009.01.257.288s.297-.149.33-.296c.031-.15.03-.15.267-.15.237 0 .148-.029.447-.266.298-.24-.089-.448-.328-.566-.237-.12-.029-.326-.029-.326l.03-.418s0-.149-.03-.357-.089-.36-.12-.566c-.031-.208-.24-.147-.24-.147v-.27s.448 0 .596-.06c.148-.059 0-.357 0-.357s-.355-.149-.626-.238c-.266-.088-.089-.148.358-.177.446-.032.06-.238.06-.238l-.355-.208s-.18.24-.478.358a.39.39 0 0 0-.138.086c-.105.1-.035.22-.128.361v.24l.128.221.08.133s-.026.124-.08.254c-.026.066-.06.134-.1.196-.119.178.06.385.06.385s0 .385-.06.598c-.059.205-.506-.18-.506-.18l-.089.506h-.415l.06.268.1.08.165.128.178.27-.346-.126-.16-.057-.295.299zm-4.677-13.427l-.507.536s.447.088.595.058c.088-.018.328-.18.577-.35.178-.125.359-.249.493-.336.33-.205.447-.148.447-.148l.12.237-.714.415.833-.12.098-.093.317-.294.329-.386.505.031.191-.073.433-.164s.357-.238.506-.505c.116-.208.194-.092.338-.06a.29.29 0 0 0 .136 0c.237-.06.121-.268.121-.476 0-.103.144-.11.31-.109.174.002.374.02.465-.041.177-.12-.149-.357-.388-.415l-.08-.018c-.186-.042-.282-.064-.308-.25-.016-.108-.127-.144-.258-.136a.709.709 0 0 0-.338.109c-.179.12-.536.148-.415-.09.019-.037.042-.051.065-.074-.927.194-1.85.442-2.76.747.205-.005.292.012.431.012.178 0-.179.208-.179.208s-.537.178-.684.294l-.018.017c-.127.123-.07.312-.07.312h.07a2.25 2.25 0 0 0 .373-.03c.149-.032.268-.09.655-.33.123-.074.198-.116.248-.136.114-.049.115-.02.257-.1.209-.122.06.328.06.328l.567-.208.459-.023.163-.007.18-.33-.345-.076-.191-.041.179-.18h.012c.083 0 .596.002.762.031.18.03 0 .24 0 .24l-.058.24-.208.383s-.27.033-.477.033h-.017c-.207.013-.43.235-.43.235l-.418.297h-.593l-.088.33-.478-.06s-.06-.15-.089-.359c-.03-.208-.24 0-.24 0s-.083.354-.285.506a.337.337 0 0 1-.13.06c-.29.062-.53.359-.53.359zm6.482-3.15c-.254.026-.507.043-.76.08.033.007.057.021.14.038.179.03.03.089.03.236 0 .099.04.13.189.16.075.014.177.03.318.048.416.058.15-.12.09-.476-.002-.037-.007-.065-.007-.086zm-1.669.22c.065.05.07.13.07.13s.028-.064.059-.154c-.046.01-.089.017-.128.024zm3.486-.333a.422.422 0 0 0-.05.228c.03.27.09 0 .267-.06.109-.038.13-.08.16-.178-.128-.001-.252.007-.377.01zM19.45 20.807l.375.024.476-.294.476.149-.267.119s-.269.386-.327.566c-.06.178.713.149.713.149s.208-.565.208-.802c0-.238.627-.387.627-.387l.177-.473.297.205s.18-.33.152-.478c-.031-.148-.567-.18-.567-.18l.537-.265.538.148-.12 1.04h.536l.12.18s-.743.418-.895.418c-.146 0-.476.383-.476.383l-.297.329s.118.179.356.237c.24.06.24.208.24.208s.326-.122.326-.297c0-.179-.12-.24-.12-.24s.268-.294.448-.505c.177-.209 1.132-.625 1.31-.833.177-.208.06-.358.06-.358l.446-.27s.12-.564.178-.711c.06-.149.686-.449 1.133-.776.447-.328.505-.358 1.099-.505.597-.152.179-.209.151-.388-.032-.179-.506.238-.506.238l-.715-.204s.297 0 .595-.237c.297-.24.24-.06.447-.149.207-.088.149-.177.149-.177h.329s.268-.268.415-.505c.148-.24.475-.685.475-.685s-.742.418-.892.476c-.148.059-.387-.058-.565-.058-.179 0-.447.294-.744.415-.296.12-.624.294-.624.294l-.447-.089-.358.15-.862.358s.149-.12.507-.327l.715-.417.566-.148.052-.288c-.228.123-.458.239-.683.37a24.247 24.247 0 0 0-5.764 4.59zm22.404 24.226a147.607 147.607 0 0 0 1.72-5.91C48.39 21.146 48.95 5.674 44.82 4.566c-1.778-.478-4.139 1.795-6.634 5.97h-.075c2.8.065 5.567.563 8.2 1.472a47.822 47.822 0 0 1 .03 3.47 76.876 76.876 0 0 1-.586 6.9 1.402 1.402 0 0 0-.349-.078c-.318-.022-.326-.005-.32 0-.004-.003-.272-.219-.371-.389-.097-.173-.293-.294-.662-.42-.373-.125-.345.146-.345.146s-.35.248-.79.2c-.424-.047-.536.43-.542.463v.003l-.317.27s-.174.296-.372.296c-.2 0-.347.05-.347.05s-.097.367-.097.566c0 .197-.199.22-.199.22s-.246.049-.415.124a5.04 5.04 0 0 0-.515.27c-.175.097-.101.17-.446.371-.346.198-.468.271-.468.271l-.466.098.245.248-.367.074s-.028.222.024.393c.05.173.417.197.417.197s-.245.2-.537.322c-.297.125-.297.171-.274.294.027.122.199.39.691.517.49.123.146-.026.37-.148.223-.123.465-.196.465-.196s.294.491.294.711c0 .223-.075.639-.046.787.027.149.27-.049.27-.049l-.223.248s.05.446.05.567c0 .124.443.049.443-.074 0-.122.245-.32.617-.344.369-.026.316-.074.316-.37 0-.298.08-.693.08-.693l.415-.122s.243-.182.39-.33a.692.692 0 0 0 .1-.115c.052-.08-.008-.161-.1-.235-.069-.064-.163-.125-.22-.185-.124-.122-.17-.516-.17-.762 0-.248 0-.149.024-.32.023-.158.207-.17.37-.207a.135.135 0 0 0 .047-.015c.171-.046.395-.346.712-.49.32-.148-.169-.173-.169-.173s.044-.272.098-.493c.044-.22.689.072.689.072l.246.296-.293.222-.346.517-.493.64.395 1.032s.345.171.566.146c.223-.024.47-.148.615-.269.063-.053.375-.136.723-.21l-.118.686c-.103.043-.239-.046-.52-.046-.382 0-.486.175-.838.208-.35.037-.14.28-.14.452 0 .173.49.384.49.384l-.385.245s-.175-.384-.523-.35c-.351.036-.212.488-.417.66-.213.177.136.702.136.702s-.25.03-.48.16c-.026.017-.048.033-.077.048-.242.174-.312.037-.312.037s-.138-.21-.312-.21c-.178 0-.417.282-.597.349-.173.067-.767 0-.767 0l-.381-.418-.317.314s-.279-.069-.453-.279c-.173-.21 0-.174-.034-.349-.033-.176-.104-.176-.104-.176l.175-.28.451-.28s.109-.628-.104-.906c-.208-.282-.208.277-.208.277l-.694.46.037.942-.14.416-.28-.069-.175.21s-.175-.104-.453-.21c-.28-.105-.767.35-.767.35l-.066.159-.112.27-.382-.07-.21.242h-.416c-.173 0-.072.314-.072.314s-.12.142-.258.193l-.062-.083c-.204-.027-.253 0-.381.101a.628.628 0 0 1-.22.095c-.1.024-.188.034-.188.034l-.177-.458s-.127-.227-.253-.049c-.127.18-.078.303-.078.303l.052.305-.254.027-.055-.017-.122-.036-.444-.265-.064-.04s-.305-.052-.255.153c.051.204.305.455.305.583a.05.05 0 0 0 .014.036c.078.084.444.06.444.218 0 .178-.23.381-.23.381s.178.152.178.38c0 .227-.05.557-.103.71-.049.152-.176.101-.228.253a.557.557 0 0 1-.061.125c-.08.129-.191.256-.191.256s-.38.102-.507.05c-.127-.05-.23-.23-.458-.28a.339.339 0 0 0-.122-.01c-.092.014-.106.06-.336-.095-.304-.204-.405-.28-.609-.355a.632.632 0 0 1-.304-.253s-.037-.024-.092-.053c-.093-.053-.233-.126-.314-.126-.127 0-.33.23-.33.23s.05.205 0 .456c-.05.252.05.38-.101.482-.152.1-.178.026-.204.226-.026.204.1.102-.1.303-.182.184-.096.181-.228.273a.576.576 0 0 1-.05.034c-.204.127-.282.1-.409.304a1.18 1.18 0 0 0-.176.61c0 .174.559.81.559.81s.032.005.076.02c.092.031.228.09.228.21 0 .176-.203.254 0 .378.204.127.1.153.229.23.06.038.442.12.821.197.415.085.828.16.828.16l.28-.206h.485l.126-.431.38-.026.026-.407s-.052-.406.076-.406c.062 0 .248-.106.42-.211.178-.11.341-.222.341-.222s.097.023.224.04c.194.027.459.047.535-.013.128-.1.408-.506.408-.506s-.062-.323.006-.465c.02-.042.049-.07.093-.07.204 0 .687.028.839.177.153.153.532.358.686.33.131-.021.34-.157.494-.258l.064-.042c.057-.038.205-.145.37-.274.007.01.011.019.011.019s.354.049.455.225c.101.179.153.508.101.711-.049.204.33.38.458.536.127.153.736.964.943 1.218.202.253.607.71.607.71l.207.483-.435.301s-.454-.023-.612-.075c-.15-.05-.279.1-.279.1s-.1-.048-.329-.253c-.23-.206-.078.028-.358.178-.278.154.358.376.508.508.153.125.357.355.455.482.104.124.357-.049.357-.252 0-.21.029-.381.029-.381h.454l.282-.33.226-.206.103-.282-.18-.508s.304-.101.43-.101.257.38.257.38l.123.05s0-.304-.078-.432c-.078-.127-.48-.43-.48-.43s-.458-.177-.586-.283c-.124-.1-.429-.634-.582-.914-.153-.28-.046-.304-.077-.431-.026-.127-.28-.283-.376-.458-.1-.176-.078-.43-.078-.43s.228-.155.484-.305a.41.41 0 0 0 .137-.11c.101.106.368.407.368.594 0 .227.102.482.156.634.047.151.353.28.76.355.408.076.28.358.28.358s.379.455.432.76c.05.302.05.457.074.84.03.38.206.431.332.785.125.355.179.355.257.632.034.125.061.256.107.383a175.71 175.71 0 0 1-.797 2.816c-.236.216-.407 1.02-.407 1.02s-.077.044-.187.079l-.53-.126c-.27-.287-.886-.396-1.214-.62-.333-.22-.333-.702-.592-.924-.259-.224-.445-.112-.445-.112s-.743-.148-.89-.333c-.08-.103-.212-.25-.318-.374l-.164-.184s.072-.072.164-.148c.11-.096.254-.204.353-.224.187-.036-.071-.408-.293-.78-.222-.37.594-.482.555-.669-.035-.18-.39-.184-.614-.288l-.016-.008c-.222-.111-.743 0-.743 0l-.704-.151s-.222.078-.407.152c-.067.029-.153.013-.242-.03a.94.94 0 0 1-.428-.417c-.103-.207-.31-.166-.524-.18a.615.615 0 0 1-.29-.082.474.474 0 0 0-.275-.083c-.162.005-.31.094-.505.12-.246.03-.566.11-.774.137a.853.853 0 0 1-.117.011c-.183 0-.408.149-.667.296-.259.146-.334-.41-.334-.41s-.08 0-.223-.028a3.49 3.49 0 0 1-.668-.198c-.555-.223-.296-.555-.296-.555s-.106.084-.316.266c-.069.063-.15.132-.243.217-.37.334-.48.483-.814.447-.334-.033-.52.112-.743.224-.205.098-.66.89-.731 1.02-4.42-1.52-8.79-3.306-12.739-5.398-.17-.093-.448-.243-.79-.44-.04-.025-.084-.047-.126-.071l-.107-.061a47.738 47.738 0 0 1-1.963-1.193 27.139 27.139 0 0 1 2.838-7.87c-.018.033-.04.063-.055.095-4.861.073-8.005.982-8.483 2.76-1.107 4.128 12.574 11.384 30.552 16.203a125.24 125.24 0 0 0 5.997 1.487zm-5.463-7.6c-.124.048-.124.324-.124.324s.098.124.223.147c.083.018.18.012.308-.019.061-.013.13-.032.214-.055.248-.073.1-.2.149-.372.049-.171.049-.398.15-.572.1-.173-.2-.294-.2-.294s-.229.32-.313.453l-.01.017c-.072.122-.275.318-.397.372zm.409-1.326c.128-.03.427-.109.486-.267.074-.197.05-.098.126-.32.075-.221-.2.074-.2.074l-.324.2-.088.193-.06.129a.475.475 0 0 0 .06-.01z"/></g><defs><clipPath id="a"><path fill="#fff" d="M0 0h75v75H0z"/></clipPath></defs></svg>