<svg width="75" height="75" viewBox="0 0 75 75" fill="none" xmlns="http://www.w3.org/2000/svg"><path d="M51.013 63.194c.89-.762 1.74-1.57 2.547-2.418h-7.5l-.944 1.875a1.293 1.293 0 0 1-2.353-.104l-1.345-3.362-2.702 7.216c-.192.505-.676.84-1.216.84h-.065a1.281 1.281 0 0 1-1.176-.957L33.49 56.185l-1.228 3.712a1.311 1.311 0 0 1-1.228.879H21.44a34.443 34.443 0 0 0 2.547 2.418c.479.427.944.84 1.37 1.254 2.497 2.354 9.712 8.224 12.143 10.19 2.431-1.966 9.647-7.836 12.142-10.19.427-.413.892-.827 1.371-1.254z" fill="#fff"/><path d="M32.392 51.31a1.26 1.26 0 0 1 1.164-.879h.104a1.27 1.27 0 0 1 1.202.957l2.832 10.358 2.47-6.595a1.293 1.293 0 0 1 1.202-.84h.013a1.293 1.293 0 0 1 1.203.814l1.513 3.789.013-.013c.214-.44.662-.717 1.15-.711h10.216a11.795 11.795 0 0 0 1.423-5.897c0-6.026-3.53-9.62-9.44-9.62a10.073 10.073 0 0 0-8.819 5.133 1.367 1.367 0 0 1-2.069.285 1.454 1.454 0 0 1-.207-.285 10.073 10.073 0 0 0-8.819-5.134c-5.91 0-9.44 3.595-9.44 9.621a11.785 11.785 0 0 0 1.423 5.897h10.578l2.288-6.88zm3.815-22.797v7.694a1.293 1.293 0 1 0 2.586 0v-7.694c-.4-.039-.827-.065-1.293-.065a13.3 13.3 0 0 0-1.293.065zm-20.224-.427a11.281 11.281 0 0 1 12.556.259c.258-4.85 1.306-15.181 5.508-22.086-12.97 4.784-16.9 16.331-18.064 21.827zm22.81-20.388V1.293a1.293 1.293 0 1 0-2.586 0v6.405c-3.563 5.899-4.68 14.87-5.017 19.793a11.277 11.277 0 0 1 6.31-1.629c2.218-.09 4.413.477 6.31 1.63-.337-4.927-1.454-13.895-5.017-19.794zm7.668 20.647a11.29 11.29 0 0 1 12.595-.233c-1.1-5.509-4.953-17.056-18.103-21.853 4.202 6.892 5.25 17.224 5.508 22.086z" fill="#fff"/><path d="M61.746 28.604c3.892-2.483 8.12-1.345 11.185.504-1.9-6.414-8.056-19.875-26.573-23.186 11.25 6.324 14.495 17.768 15.388 22.681zM28.642 5.922C10.125 9.232 3.97 22.694 2.07 29.108a12.558 12.558 0 0 1 6.336-1.94 8.95 8.95 0 0 1 4.85 1.436c.892-4.914 4.137-16.358 15.387-22.682zM14.224 58.19a1.293 1.293 0 0 0 0 2.586h7.216a13.273 13.273 0 0 1-1.914-2.586h-5.302zm46.552 2.586a1.293 1.293 0 0 0 0-2.586h-5.302a13.277 13.277 0 0 1-1.914 2.586h7.216z" fill="#fff"/></svg>