<svg width="75" height="75" viewBox="0 0 75 75" fill="none" xmlns="http://www.w3.org/2000/svg"><path d="M23.087 38.876c.095-.275.203-.577.325-.893.515-1.292 1.37-2.872 2.698-4.287 6.237-4.851 12.773-23.086 12.773-23.086S37.865 4 40.916 4s10.305 2.061 5.953 15.432c-4.353 13.384 0 11.323 0 11.323a48.612 48.612 0 0 1 2.806-.577s12.569-2.858 17.206 1.443c3.715 3.435.827 7.97.827 7.97s5.22 4.713-.095 10.347c0 0 3.403 5.703-2.576 10.252 0 0 2.78 7.846-8.325 10.237-3.268.7-7.376.673-11.254.371-9.694.206-19.334-1.072-19.334-1.072L19.887 42.23c1.885-1.154 2.78-2.487 3.2-3.353zM5.014 42.614L5 70.097h14.738c1.315 0 2.17-1.058 1.898-2.363l-4.718-22.756c-.271-1.306-1.56-2.364-2.875-2.364h-9.03z" fill="#fff"/></svg>