<svg width="75" height="75" viewBox="0 0 75 75" fill="none" xmlns="http://www.w3.org/2000/svg"><path d="M37.5 11.719c-12.277 0-22.266 9.988-22.266 22.265 0 12.278 9.989 22.266 22.266 22.266 12.277 0 22.266-9.988 22.266-22.266 0-12.277-9.989-22.265-22.266-22.265zm7.031 15.234h-12.89v5.86h11.718a1.172 1.172 0 0 1 1.172 1.171v7.032a1.172 1.172 0 0 1-1.172 1.172h-4.687v3.515h-2.344v-3.516h-7.031v-2.343h12.89v-4.688H30.47a1.172 1.172 0 0 1-1.172-1.172v-8.203a1.172 1.172 0 0 1 1.172-1.172h5.86v-3.515h2.343v3.515h5.86v2.344z" fill="#fff"/><path d="M62.11 15.234v7.762a27.072 27.072 0 0 0-5.86-8.354v-7.61h-2.344v5.583a26.938 26.938 0 0 0-7.031-3.9V0h-18.75v8.714a26.938 26.938 0 0 0-7.031 3.901V7.031H18.75v7.61a27.072 27.072 0 0 0-5.86 8.355v-7.762h-2.343v19.922h.027c.476 11.06 7.645 20.412 17.551 24.099v4.026h-5.86a1.173 1.173 0 0 0-.614 2.17l15.235 9.375a1.172 1.172 0 0 0 1.228 0l15.235-9.375a1.171 1.171 0 0 0-.615-2.17h-5.859v-4.026c10.254-3.817 17.578-13.704 17.578-25.27v-18.75H62.11zM37.5 58.594c-13.57 0-24.61-11.04-24.61-24.61S23.93 9.375 37.5 9.375s24.61 11.04 24.61 24.61S51.07 58.593 37.5 58.593z" fill="#fff"/></svg>