<svg width="75" height="75" viewBox="0 0 75 75" fill="none" xmlns="http://www.w3.org/2000/svg"><g clip-path="url(#a)" fill="#fff"><path d="M23.063 33.413c3.434 7.58 10.787 10.88 14.437 10.88 2.4 0 6.4-1.428 9.836-4.56a58.013 58.013 0 0 1-4.033.132c-.337 0-.69-.003-1.068-.009a4.183 4.183 0 0 1-2.548.871H36.63a4.182 4.182 0 0 1-4.178-4.177 4.182 4.182 0 0 1 4.178-4.178h3.057a4.16 4.16 0 0 1 2.903 1.173c.254.003.505.004.751.004 3.946 0 6.547-.362 8.248-.798a4.563 4.563 0 0 1-.34-1.738V20.42c0-1.102.408-2.158 1.115-2.974-.377-2.938-1.062-5.18-2.084-6.835-2.107-3.409-6.168-4.996-12.78-4.996-5.486 0-9.274 1.138-11.58 3.48-1.789 1.817-2.825 4.408-3.31 8.321a4.548 4.548 0 0 1 1.142 3.004v10.592a4.51 4.51 0 0 1-.69 2.4z"/><path d="M15.547 33.513h3.667a2.5 2.5 0 0 0 2.5-2.5V20.42c0-.923-.5-1.727-1.244-2.16.819-8.673 4.165-14.683 17.03-14.683 7.388 0 12 1.895 14.514 5.963 1.462 2.368 2.166 5.426 2.495 8.733a2.496 2.496 0 0 0-1.223 2.147v10.591a2.5 2.5 0 0 0 1.947 2.438c-1.616 1.057-4.962 2.137-11.892 2.137-.56 0-1.146-.008-1.755-.022a2.139 2.139 0 0 0-1.899-1.155H36.63a2.14 2.14 0 0 0 0 4.28h3.057c.714 0 1.345-.352 1.733-.89a71.65 71.65 0 0 0 1.883.027c7.81 0 12.776-1.333 14.787-3.978a5.07 5.07 0 0 0 .234-.336h1.13a2.5 2.5 0 0 0 2.5-2.5V20.42a2.5 2.5 0 0 0-2.5-2.5h-1.38c-.387-3.996-1.248-7.398-3.017-10.26C51.873 2.505 46.13 0 37.5 0c-8.63 0-14.372 2.506-17.557 7.66-1.77 2.863-2.63 6.264-3.017 10.26h-1.38a2.5 2.5 0 0 0-2.5 2.501v10.592a2.5 2.5 0 0 0 2.501 2.5zM67.73 64.66c-.83-5.17-2.542-11.828-5.975-14.194-2.34-1.614-10.512-5.98-14.002-7.845l-.073-.039c-.4-.213-.887-.17-1.243.11-1.83 1.436-3.834 2.404-5.956 2.876-.375.083-.683.35-.82.71L37.5 51.974l-2.162-5.698a1.141 1.141 0 0 0-.82-.709c-2.12-.472-4.125-1.44-5.956-2.877a1.14 1.14 0 0 0-1.242-.109c-3.45 1.844-11.728 6.301-14.065 7.877-3.953 2.663-5.68 12.297-5.986 14.2-.03.19-.012.383.051.563.142.4 3.768 9.778 30.18 9.778 26.411 0 30.038-9.378 30.18-9.778a1.14 1.14 0 0 0 .05-.562zm-12.297-5.936H44.972V56.52h10.46v2.203z"/></g><defs><clipPath id="a"><path fill="#fff" d="M0 0h75v75H0z"/></clipPath></defs></svg>