<svg width="20" height="23" viewBox="0 0 20 23" fill="none" xmlns="http://www.w3.org/2000/svg"><path d="M19.608 12.912l-7.492-5.63a1.03 1.03 0 0 1-.413-.821V1.387a1.318 1.318 0 0 0-2.637 0v5.074a1.02 1.02 0 0 1-.405.821l-7.5 5.61a.723.723 0 0 0 .034 1.178.72.72 0 0 0 .68.06l5.774-2.478a1.024 1.024 0 0 1 1.427.864l.532 7.011a3.434 3.434 0 0 1-.321 1.731l-.793 1.668h3.802l-.79-1.664a3.434 3.434 0 0 1-.322-1.74l.55-6.987a1.025 1.025 0 0 1 1.43-.86l5.729 2.471a.718.718 0 0 0 .715-1.234z" fill="#fff"/></svg>