<svg width="24" height="24" viewBox="0 0 24 24" fill="none" xmlns="http://www.w3.org/2000/svg"><path d="M21.989 11.946a1.991 1.991 0 0 1-2.05 1.99l-4.738-.14-3.454 7.143c-.277.575-.86.94-1.498.94a.926.926 0 0 1-.919-1.036l.862-7.193-3.765-.11-.49 1.341a1.29 1.29 0 0 1-1.211.846.901.901 0 0 1-.901-.9V13.35l-.81-.17a1.261 1.261 0 0 1 0-2.468l.81-.169V9.066a.9.9 0 0 1 .788-.894l.113-.007a1.29 1.29 0 0 1 1.21.846l.492 1.34 3.751-.11-.849-7.084a.922.922 0 0 1-.005-.055l-.002-.055c0-.512.415-.926.926-.926.585 0 1.123.307 1.423.8l.075.14 3.403 7.035 4.79-.14a1.991 1.991 0 0 1 2.048 1.932l.001.058z" fill="#fff"/></svg>