<?xml version="1.0" encoding="utf-8"?><svg xmlns="http://www.w3.org/2000/svg" xmlns:xlink="http://www.w3.org/1999/xlink"><symbol viewBox="0 0 24 24" id="airplane" xmlns="http://www.w3.org/2000/svg"><path d="M21.99 11.946a1.991 1.991 0 01-2.05 1.99l-4.74-.14-3.452 7.144c-.278.574-.86.94-1.498.94a.926.926 0 01-.92-1.037l.862-7.193-3.765-.11-.49 1.341a1.29 1.29 0 01-1.21.846.901.901 0 01-.902-.9V13.35l-.81-.17a1.261 1.261 0 010-2.468l.81-.169V9.066a.9.9 0 01.788-.894l.113-.007a1.29 1.29 0 011.21.846l.492 1.34 3.751-.11-.849-7.084a.922.922 0 01-.005-.055l-.001-.055c0-.512.414-.926.926-.926.585 0 1.122.307 1.422.8l.075.14 3.403 7.035 4.79-.14a1.991 1.991 0 012.048 1.932l.001.058z"/></symbol><symbol viewBox="0 0 10 6" id="arrow-dropdown" xmlns="http://www.w3.org/2000/svg"><path d="M4.808 5.77L1.093 1.312A.8.8 0 011.708 0h6.584a.8.8 0 01.615 1.312L5.192 5.77a.25.25 0 01-.384 0z"/></symbol><symbol viewBox="0 0 20 20" id="back" xmlns="http://www.w3.org/2000/svg"><path d="M10 0C4.475 0 0 4.479 0 10c0 5.524 4.476 10 10 10 5.522 0 10-4.476 10-10 0-5.522-4.478-10-10-10zm-.781 5.47l.084-.073a.75.75 0 01.883-.007l.094.08.072.084a.75.75 0 01.007.882l-.08.094L7.56 9.25h6.69l.102.007a.75.75 0 01.641.641L15 10l-.007.102a.75.75 0 01-.641.641l-.102.007H7.56l2.72 2.72.073.085a.75.75 0 01-1.05 1.049l-.083-.073-4.002-4-.072-.084a.75.75 0 01-.008-.883l.08-.093L9.22 5.47l.084-.073-.084.073z"/></symbol><symbol viewBox="0 0 24 24" id="calendar-clock" xmlns="http://www.w3.org/2000/svg"><path d="M17.75 3A3.25 3.25 0 0121 6.25V7H3v-.75A3.25 3.25 0 016.25 3h11.5zM21 8.5v3.522A6.5 6.5 0 0012.022 21H6.25A3.25 3.25 0 013 17.75V8.5h18z"/><path d="M23 17.5a5.5 5.5 0 10-11 0 5.5 5.5 0 0011 0zm-5.5 0h2a.5.5 0 110 1H17a.5.5 0 01-.5-.5v-3a.5.5 0 011 0v2.5z"/></symbol><symbol viewBox="0 0 24 24" id="case" xmlns="http://www.w3.org/2000/svg"><path d="M15.25 3a.75.75 0 01.75.75V7h1.75A3.25 3.25 0 0121 10.25v6.5A3.25 3.25 0 0117.75 20H6.25A3.25 3.25 0 013 16.75v-6.5A3.25 3.25 0 016.25 7H8V3.75a.75.75 0 01.648-.743L8.75 3h6.5zm-.75 1.5h-5V7h5V4.5z"/></symbol><symbol viewBox="0 0 9 7" id="check" xmlns="http://www.w3.org/2000/svg"><path d="M8.81.372a.583.583 0 00-.828 0L3.636 4.724 1.81 2.892a.596.596 0 10-.828.858l2.24 2.24a.583.583 0 00.828 0l4.76-4.76a.583.583 0 000-.857z"/></symbol><symbol viewBox="0 0 24 24" id="child" xmlns="http://www.w3.org/2000/svg"><path d="M14.658 5.333c1.01-.181 1.786-1.305 1.786-2.657 0-1.478-.928-2.676-2.073-2.676-1.146 0-2.074 1.198-2.074 2.676 0 1.356.781 2.476 1.795 2.652.053.01.084.04.068.072l-.028.057-.197.372c-.026.047-.002.086.052.086h.036c.055 0 .084.042.071.094a1.398 1.398 0 00-.028.537c.036.257.193.493.302.724.153.321.192.617.106.962-.076.306-.178.593-.217.908-.038.313.452.309.49 0 .035-.29.145-.565.216-.847.07-.283.067-.568-.004-.85-.067-.272-.219-.512-.338-.763-.11-.235-.092-.457-.019-.673a.15.15 0 01.133-.092h.028c.054 0 .077-.039.052-.087l-.197-.371-.029-.055c-.015-.03.016-.06.07-.07zm-2.614 6.909a1.674 1.674 0 100-3.348 1.674 1.674 0 000 3.348z"/><path d="M7.48 15.983a.712.712 0 001.04.971l1.56-1.74v2.036l-.208 5.89a.83.83 0 001.66.059l.155-4.415h.649l.583 4.492a.83.83 0 001.647-.214l-.824-6.267-.021-2.548 1.823-.831a.728.728 0 00.403-.48l.741-2.874a.728.728 0 10-1.41-.364l-.654 2.537-1.481.676h-2.59a.486.486 0 00-.112.014.706.706 0 00-.386.212L7.48 15.983z"/></symbol><symbol viewBox="0 0 18 18" id="clock" xmlns="http://www.w3.org/2000/svg"><path fill-rule="evenodd" clip-rule="evenodd" d="M9 18A9 9 0 109 0a9 9 0 000 18zm1-14.5a1 1 0 10-2 0v5.25C8 9.44 8.56 10 9.25 10h3.25a1 1 0 100-2H10V3.5z"/></symbol><symbol viewBox="0 0 24 24" id="eye-hide" xmlns="http://www.w3.org/2000/svg"><path d="M2.22 2.22a.75.75 0 00-.073.976l.073.084 4.034 4.035a9.986 9.986 0 00-3.955 5.75.75.75 0 001.455.364 8.49 8.49 0 013.58-5.034l1.81 1.81A4 4 0 0014.8 15.86l5.919 5.92a.75.75 0 001.133-.977l-.073-.084-6.113-6.114.001-.002-6.95-6.946.002-.002-1.133-1.13L3.28 2.22a.75.75 0 00-1.06 0zM12 5.5c-1 0-1.97.148-2.889.425l1.237 1.236a8.503 8.503 0 019.899 6.272.75.75 0 001.455-.363A10.003 10.003 0 0012 5.5zm.195 3.51l3.801 3.8a4.003 4.003 0 00-3.801-3.8z" opacity=".6"/></symbol><symbol viewBox="0 0 24 24" id="eye-show" xmlns="http://www.w3.org/2000/svg"><path d="M12 9.005a4 4 0 110 8 4 4 0 010-8zM12 5.5c4.613 0 8.596 3.15 9.701 7.564a.75.75 0 11-1.455.365 8.503 8.503 0 00-16.493.004.75.75 0 01-1.455-.363A10.003 10.003 0 0112 5.5z"/></symbol><symbol viewBox="0 0 11 19" id="facebook" xmlns="http://www.w3.org/2000/svg"><path d="M2.698 19h4v-8.01h3.604l.396-3.98h-4V5a1 1 0 011-1h3V0h-3a5 5 0 00-5 5v2.01h-2l-.396 3.98h2.396V19z"/></symbol><symbol viewBox="0 0 21 21" id="insta" xmlns="http://www.w3.org/2000/svg"><path d="M10.5 5.5a5 5 0 100 10 5 5 0 000-10zm0 8a3 3 0 110-6 3 3 0 010 6zm5-9a1 1 0 100 2 1 1 0 000-2zm4.94 2.24a7.51 7.51 0 00-.48-2.5 5.56 5.56 0 00-3.2-3.2 7.51 7.51 0 00-2.5-.48C13.29.5 12.97.5 10.5.5 8.03.5 7.71.5 6.74.56a7.51 7.51 0 00-2.5.48 5.56 5.56 0 00-3.2 3.2 7.51 7.51 0 00-.48 2.5C.5 7.72.5 8.04.5 10.5s0 2.78.06 3.76c.017.855.179 1.7.48 2.5a5.56 5.56 0 003.2 3.2 7.51 7.51 0 002.5.48c1 0 1.29.06 3.76.06 2.47 0 2.79 0 3.76-.06a7.51 7.51 0 002.5-.48 5.56 5.56 0 003.2-3.2 7.51 7.51 0 00.48-2.5c0-1 .06-1.3.06-3.76s0-2.78-.06-3.76zm-2 7.43a6 6 0 01-.35 1.86 3.4 3.4 0 01-.82 1.25 3.26 3.26 0 01-1.25.81 5.75 5.75 0 01-1.87.36c-.94 0-1.23.05-3.66.05H6.84a6 6 0 01-1.87-.35 3.4 3.4 0 01-1.25-.82 3.26 3.26 0 01-.81-1.25 5.74 5.74 0 01-.36-1.86V6.88a5.86 5.86 0 01.36-1.87 3.3 3.3 0 01.81-1.24 3.26 3.26 0 011.25-.81 5.75 5.75 0 011.87-.36c.94-.1 1.23-.1 3.66-.1h3.66a5.87 5.87 0 011.88.36 3.3 3.3 0 011.24.81c.363.349.64.776.81 1.25a5.74 5.74 0 01.41 1.91c0 1 .05 1.25.05 3.67s-.05 2.71-.05 3.67h-.06z"/></symbol><symbol viewBox="0 0 20 20" id="location" xmlns="http://www.w3.org/2000/svg"><path fill-rule="evenodd" clip-rule="evenodd" d="M10 20c5.523 0 10-4.477 10-10S15.523 0 10 0 0 4.477 0 10s4.477 10 10 10zm2.598-11.5c-.574-.994-3.575-2.645-4.931-3.355a.478.478 0 00-.704.407c-.064 1.53-.135 4.954.439 5.948.574.994 3.575 2.645 4.932 3.354a.478.478 0 00.704-.406c.063-1.53.134-4.954-.44-5.948z"/></symbol><symbol viewBox="0 0 14 22" id="login" xmlns="http://www.w3.org/2000/svg"><path fill-rule="evenodd" clip-rule="evenodd" d="M10.621 1.669l-3.69-.58c-3.22-.506-4.83-.76-5.88.139C0 2.126 0 3.756 0 7.016V10h5.92l-2.7-3.375 1.56-1.25 4 5 .5.625-.5.625-4 5-1.56-1.25L5.92 12H0v2.983c0 3.26 0 4.89 1.05 5.788 1.05.898 2.66.645 5.881.14l3.69-.58c1.613-.254 2.419-.38 2.899-.942.48-.561.48-1.377.48-3.01V5.62c0-1.632 0-2.449-.48-3.01-.48-.561-1.286-.688-2.899-.941z"/></symbol><symbol viewBox="0 0 18 14" id="message" xmlns="http://www.w3.org/2000/svg"><path fill-rule="evenodd" clip-rule="evenodd" d="M.013 4.151C0 4.691 0 5.302 0 6v2c0 2.828 0 4.243.879 5.121C1.757 14 3.172 14 6 14h6c2.828 0 4.243 0 5.121-.879C18 12.243 18 10.828 18 8V6c0-.698 0-1.31-.013-1.849L9.97 8.604a2 2 0 01-1.942 0L.013 4.151zm.23-2.121a.96.96 0 01.243.096L9 6.856l8.514-4.73a1 1 0 01.243-.096c-.13-.474-.33-.845-.636-1.151C16.243 0 14.828 0 12 0H6C3.172 0 1.757 0 .879.879c-.307.306-.506.677-.636 1.15z"/></symbol><symbol viewBox="0 0 24 24" id="person" xmlns="http://www.w3.org/2000/svg"><path d="M17.754 14a2.249 2.249 0 012.249 2.249v.918a2.75 2.75 0 01-.512 1.6C17.945 20.928 15.42 22 12 22c-3.421 0-5.944-1.072-7.486-3.236a2.75 2.75 0 01-.51-1.596v-.92a2.249 2.249 0 012.248-2.25h11.502zM12 2.005a5 5 0 110 10 5 5 0 010-10z"/></symbol><symbol viewBox="0 0 25 24" id="person-add" xmlns="http://www.w3.org/2000/svg"><path d="M11.5 17.5a6.47 6.47 0 011.023-3.5h-7.77a2.249 2.249 0 00-2.25 2.249v.92c0 .572.18 1.13.511 1.596C4.556 20.929 7.08 22 10.5 22c.932 0 1.797-.08 2.592-.24A6.475 6.475 0 0111.5 17.5zm4-10.495a5 5 0 10-10 0 5 5 0 0010 0z"/><path fill-rule="evenodd" clip-rule="evenodd" d="M23.5 17.5a5.5 5.5 0 10-11 0 5.5 5.5 0 0011 0zm-5.59-3.492L18 14l.09.008a.5.5 0 01.402.402l.008.09V17h2.504l.09.008a.5.5 0 01.402.402l.008.09-.008.09a.5.5 0 01-.402.402l-.09.008H18.5l.001 2.5-.008.09a.5.5 0 01-.402.402L18 21l-.09-.008a.5.5 0 01-.402-.402l-.008-.09V18h-2.496l-.09-.008a.5.5 0 01-.402-.402l-.008-.09.008-.09a.5.5 0 01.402-.402l.09-.008H17.5l.001-2.5.008-.09a.5.5 0 01.402-.402z"/></symbol><symbol viewBox="0 0 18 18" id="phone" xmlns="http://www.w3.org/2000/svg"><path d="M2.68 1.82l.613-.613a1 1 0 011.414 0l2.586 2.586a1 1 0 010 1.414L5.5 7a.982.982 0 00-.183 1.133 11.293 11.293 0 005.05 5.05A.982.982 0 0011.5 13l1.793-1.792a1 1 0 011.414 0l2.586 2.586a1 1 0 010 1.414l-.613.613a6 6 0 01-7.843.558l-1.208-.907a22.997 22.997 0 01-4.6-4.6l-.907-1.208A6 6 0 012.68 1.82z"/></symbol><symbol viewBox="0 0 10 6" id="select-dropdown-ico" xmlns="http://www.w3.org/2000/svg"><path d="M4.808 5.77L1.093 1.312A.8.8 0 011.708 0h6.584a.8.8 0 01.615 1.312L5.192 5.77a.25.25 0 01-.384 0z"/></symbol><symbol viewBox="0 0 20 20" id="send" xmlns="http://www.w3.org/2000/svg"><path d="M10.816 10.197l-7.531 1.256a.5.5 0 00-.386.318L.3 18.728c-.249.64.42 1.25 1.034.943l18-9a.75.75 0 000-1.342l-18-9C.722.022.052.632.301 1.272l2.598 6.957a.5.5 0 00.386.318l7.531 1.256a.2.2 0 010 .394z"/></symbol><symbol viewBox="0 0 24 24" id="standing-up-man" xmlns="http://www.w3.org/2000/svg"><path d="M11.961 4.04a2.02 2.02 0 100-4.04 2.02 2.02 0 000 4.04zm.704.964a3.678 3.678 0 00-1.545.018c-3.358.394-4.449 4.281-4.141 7.245.134 1.282 2.154 1.295 2.019 0-.112-1.08-.064-2.71.51-3.869v4.225c0 .05.005.096.007.144-.001.023-.007.042-.007.066 0 3.352-.006 6.703-.144 10.052-.061 1.49 2.247 1.483 2.308 0 .109-2.625.136-5.252.142-7.879a2.7 2.7 0 00.329.001c.006 2.627.033 5.254.14 7.878.062 1.483 2.37 1.49 2.309 0-.139-3.35-.144-6.7-.144-10.052 0-.104-.014-.199-.035-.29-.003-1.455-.059-2.912-.042-4.367.688 1.165.75 2.94.632 4.09-.136 1.294 1.885 1.281 2.018 0 .315-3.025-.828-7.013-4.356-7.262z"/></symbol><symbol viewBox="0 0 16 20" id="unlock" xmlns="http://www.w3.org/2000/svg"><path d="M8 .001a4 4 0 013.771 2.666 1 1 0 01-1.84.774l-.045-.107a2 2 0 00-3.88.517L6.002 4v1.999h7.749a2.25 2.25 0 012.245 2.097L16 8.25v9.496a2.25 2.25 0 01-2.096 2.245l-.154.005H2.25A2.25 2.25 0 01.005 17.9L0 17.746V8.25a2.25 2.25 0 012.096-2.245L2.25 6l1.751-.001v-2A3.999 3.999 0 018 .002zm0 11.498a1.499 1.499 0 100 2.998 1.499 1.499 0 000-2.998z"/></symbol><symbol viewBox="0 0 24 24" id="weather-sunny" xmlns="http://www.w3.org/2000/svg"><path d="M11.996 18.532a1 1 0 01.993.883l.007.117v1.456a1 1 0 01-1.993.116l-.007-.116v-1.456a1 1 0 011-1zm6.037-1.932l1.03 1.03a1 1 0 01-1.415 1.413l-1.03-1.03a1 1 0 011.415-1.413zm-10.66 0a1 1 0 010 1.414l-1.029 1.03a1 1 0 01-1.414-1.415l1.03-1.03a1 1 0 011.413 0zM12.01 6.472a5.525 5.525 0 110 11.05 5.525 5.525 0 010-11.05zm8.968 4.546a1 1 0 01.117 1.993l-.117.007h-1.456a1 1 0 01-.116-1.994l.116-.006h1.456zM4.479 10.99a1 1 0 01.116 1.993l-.116.007H3.023a1 1 0 01-.117-1.994l.117-.006h1.456zm1.77-6.116l.095.083 1.03 1.03a1 1 0 01-1.32 1.497L5.958 7.4 4.93 6.37a1 1 0 011.32-1.496zm12.813.083a1 1 0 01.083 1.32l-.083.094-1.03 1.03a1 1 0 01-1.497-1.32l.084-.095 1.029-1.03a1 1 0 011.414 0zM12 2.013a1 1 0 01.993.883l.007.117v1.455a1 1 0 01-1.993.117L11 4.468V3.013a1 1 0 011-1z"/></symbol><symbol viewBox="0 0 23 17" id="yout" xmlns="http://www.w3.org/2000/svg"><path d="M22.5 6.21a8.499 8.499 0 00-.91-4.13 2.92 2.92 0 00-1.72-1A78.36 78.36 0 0011.5.77a78.45 78.45 0 00-8.34.3 2.87 2.87 0 00-1.46.74C.8 2.64.7 4.06.6 5.26a48.29 48.29 0 000 6.48 9.55 9.55 0 00.3 2c.12.505.365.972.71 1.36a2.86 2.86 0 001.49.78c2.156.266 4.328.376 6.5.33 3.5.05 6.57 0 10.2-.28a2.88 2.88 0 001.53-.78c.28-.28.49-.623.61-1 .358-1.097.533-2.246.52-3.4.04-.56.04-3.94.04-4.54zM9.24 11.35V5.16l5.92 3.11c-1.66.92-3.85 1.96-5.92 3.08z"/></symbol></svg>
