<?xml version="1.0" encoding="utf-8"?><svg xmlns="http://www.w3.org/2000/svg" xmlns:xlink="http://www.w3.org/1999/xlink"><symbol viewBox="0 0 24 24" id="airplane" xmlns="http://www.w3.org/2000/svg"><path d="M21.99 11.946a1.991 1.991 0 01-2.05 1.99l-4.74-.14-3.452 7.144c-.278.574-.86.94-1.498.94a.926.926 0 01-.92-1.037l.862-7.193-3.765-.11-.49 1.341a1.29 1.29 0 01-1.21.846.901.901 0 01-.902-.9V13.35l-.81-.17a1.261 1.261 0 010-2.468l.81-.169V9.066a.9.9 0 01.788-.894l.113-.007a1.29 1.29 0 011.21.846l.492 1.34 3.751-.11-.849-7.084a.922.922 0 01-.005-.055l-.001-.055c0-.512.414-.926.926-.926.585 0 1.122.307 1.422.8l.075.14 3.403 7.035 4.79-.14a1.991 1.991 0 012.048 1.932l.001.058z"/></symbol><symbol viewBox="0 0 10 6" id="arrow-dropdown" xmlns="http://www.w3.org/2000/svg"><path d="M4.808 5.77L1.093 1.312A.8.8 0 011.708 0h6.584a.8.8 0 01.615 1.312L5.192 5.77a.25.25 0 01-.384 0z"/></symbol><symbol viewBox="0 0 20 20" id="back" xmlns="http://www.w3.org/2000/svg"><path d="M10 0C4.475 0 0 4.479 0 10c0 5.524 4.476 10 10 10 5.522 0 10-4.476 10-10 0-5.522-4.478-10-10-10zm-.781 5.47l.084-.073a.75.75 0 01.883-.007l.094.08.072.084a.75.75 0 01.007.882l-.08.094L7.56 9.25h6.69l.102.007a.75.75 0 01.641.641L15 10l-.007.102a.75.75 0 01-.641.641l-.102.007H7.56l2.72 2.72.073.085a.75.75 0 01-1.05 1.049l-.083-.073-4.002-4-.072-.084a.75.75 0 01-.008-.883l.08-.093L9.22 5.47l.084-.073-.084.073z"/></symbol><symbol viewBox="0 0 512.001 512.001" id="baggage" xmlns="http://www.w3.org/2000/svg"><path d="M345.075 126.02V69.268c0-8.894-7.21-16.104-16.104-16.104H183.029c-8.894 0-16.104 7.21-16.104 16.104v56.752h-45.663v332.818h269.475V126.02h-45.662zm-32.208-.128H199.133v-40.52h113.733v40.52zm-258.126.128C24.557 126.02 0 150.576 0 180.76v223.337c0 30.183 24.557 54.74 54.741 54.74h34.313V126.02H54.741zm402.519 0h-34.313v332.818h34.313c30.184 0 54.741-24.557 54.741-54.74V180.76c-.001-30.184-24.558-54.74-54.741-54.74z"/></symbol><symbol viewBox="0 0 24 24" id="baloon" xmlns="http://www.w3.org/2000/svg"><path fill-rule="evenodd" clip-rule="evenodd" d="M12.398 17.804C13.881 17.034 19 14.016 19 9A7 7 0 105 9c0 5.016 5.119 8.035 6.602 8.804a.855.855 0 00.796 0zM12 12a3 3 0 100-6 3 3 0 000 6z"/><path fill-rule="evenodd" clip-rule="evenodd" d="M17.26 15.904a1 1 0 011.398-.207C19.406 16.252 20 17.032 20 18s-.594 1.748-1.342 2.303c-.756.561-1.776.983-2.918 1.266-1.15.285-2.44.431-3.74.431-1.3 0-2.589-.146-3.74-.431-1.142-.283-2.162-.705-2.918-1.266C4.594 19.748 4 18.968 4 18s.594-1.748 1.342-2.303a1 1 0 011.192 1.606C6.053 17.66 6 17.915 6 18c0 .085.053.34.534.697.472.35 1.22.686 2.206.93.977.242 2.103.373 3.26.373 1.157 0 2.283-.131 3.26-.373.987-.244 1.734-.58 2.206-.93.482-.357.534-.612.534-.697 0-.085-.052-.34-.534-.697a1 1 0 01-.207-1.399z"/></symbol><symbol viewBox="0 0 12 13" id="calendar" xmlns="http://www.w3.org/2000/svg"><path d="M6 10.212a.522.522 0 00.485-.327.535.535 0 00-.114-.578.523.523 0 00-.896.375c0 .14.055.275.154.375.098.1.232.155.371.155zm2.625 0a.522.522 0 00.485-.327.535.535 0 00-.114-.578.523.523 0 00-.896.375c0 .14.055.275.154.375.098.1.232.155.371.155zm0-2.121a.521.521 0 00.485-.327.535.535 0 00-.114-.578.523.523 0 00-.896.375c0 .14.055.275.154.375a.523.523 0 00.371.155zM6 8.09a.521.521 0 00.485-.327.535.535 0 00-.114-.578.523.523 0 00-.896.375c0 .14.055.275.154.375A.523.523 0 006 8.09zm3.675-6.364H9.15v-.53a.533.533 0 00-.154-.375.522.522 0 00-.896.375v.53H3.9v-.53a.533.533 0 00-.154-.375.522.522 0 00-.896.375v.53h-.525a1.57 1.57 0 00-1.114.466A1.6 1.6 0 00.75 3.318v7.424c0 .422.166.827.461 1.125.296.299.696.466 1.114.466h7.35c.418 0 .818-.167 1.114-.466a1.6 1.6 0 00.461-1.125V3.318c0-.422-.166-.826-.461-1.125a1.567 1.567 0 00-1.114-.466zm.525 9.015a.53.53 0 01-.154.375.522.522 0 01-.371.156h-7.35a.522.522 0 01-.371-.156.533.533 0 01-.154-.375V5.97h8.4v4.772zm0-5.833H1.8V3.32c0-.141.055-.276.154-.376a.522.522 0 01.371-.155h.525v.53c0 .14.055.276.154.375a.522.522 0 00.896-.375v-.53h4.2v.53c0 .14.055.276.154.375a.522.522 0 00.896-.375v-.53h.525c.14 0 .273.056.371.155.099.1.154.235.154.375V4.91zM3.375 8.091a.521.521 0 00.485-.327.535.535 0 00-.114-.578.523.523 0 00-.896.375c0 .14.055.275.154.375a.523.523 0 00.371.155zm0 2.121a.522.522 0 00.485-.327.535.535 0 00-.114-.578.523.523 0 00-.896.375c0 .14.055.275.154.375.098.1.232.155.371.155z"/></symbol><symbol viewBox="0 0 24 24" id="calendar-clock" xmlns="http://www.w3.org/2000/svg"><path d="M17.75 3A3.25 3.25 0 0121 6.25V7H3v-.75A3.25 3.25 0 016.25 3h11.5zM21 8.5v3.522A6.5 6.5 0 0012.022 21H6.25A3.25 3.25 0 013 17.75V8.5h18z"/><path d="M23 17.5a5.5 5.5 0 10-11 0 5.5 5.5 0 0011 0zm-5.5 0h2a.5.5 0 110 1H17a.5.5 0 01-.5-.5v-3a.5.5 0 011 0v2.5z"/></symbol><symbol viewBox="0 0 18 18" id="car" xmlns="http://www.w3.org/2000/svg"><path d="M11.85 2.25c1.117 0 2.092.76 2.364 1.845l.289 1.155h.684c.285 0 .52.212.558.486l.005.077c0 .284-.212.52-.486.557l-.076.005h-.402l.155.62c.487.296.812.831.812 1.442v6.373c0 .725-.588 1.313-1.312 1.313h-1.129A1.312 1.312 0 0112 14.81v-.935H6.002v.935c0 .725-.588 1.313-1.312 1.313H3.563A1.312 1.312 0 012.25 14.81V8.437c0-.61.325-1.146.811-1.442l.156-.62h-.405a.563.563 0 01-.557-.486l-.005-.077c0-.284.212-.52.486-.557l.076-.005h.685l.29-1.154A2.438 2.438 0 016.15 2.25h5.699zM4.878 13.875H3.374l.001.935c0 .104.084.188.188.188H4.69a.188.188 0 00.187-.188v-.935zm9.75 0h-1.504l.001.935c0 .104.084.188.188.188h1.128a.188.188 0 00.187-.188v-.935zM10.313 10.5H7.687l-.077.005a.563.563 0 000 1.115l.077.005h2.626l.076-.005a.563.563 0 00-.076-1.12zM12.75 9a.75.75 0 100 1.5.75.75 0 000-1.5zm-7.5 0a.75.75 0 100 1.5.75.75 0 000-1.5zm6.6-5.625h-5.7c-.602 0-1.127.41-1.273.994L4.283 6.75h9.437l-.597-2.382a1.312 1.312 0 00-1.273-.993z"/></symbol><symbol viewBox="0 0 24 24" id="case" xmlns="http://www.w3.org/2000/svg"><path d="M15.25 3a.75.75 0 01.75.75V7h1.75A3.25 3.25 0 0121 10.25v6.5A3.25 3.25 0 0117.75 20H6.25A3.25 3.25 0 013 16.75v-6.5A3.25 3.25 0 016.25 7H8V3.75a.75.75 0 01.648-.743L8.75 3h6.5zm-.75 1.5h-5V7h5V4.5z"/></symbol><symbol viewBox="0 0 512 512" id="charter" xmlns="http://www.w3.org/2000/svg"><path d="M497.535 14.465c-19.569-19.568-51.395-19.241-70.557.726L322.092 124.488 66.131 39.781 12.4 93.513l213.352 131.365-107.956 112.494-69.231-11.366L0 374.571l101.78 35.649L137.429 512l48.565-48.565-11.366-69.231 112.494-107.955L418.487 499.6l53.732-53.732-84.706-255.961L496.808 85.022c19.968-19.162 20.295-50.988.727-70.557z"/></symbol><symbol viewBox="0 0 9 7" id="check" xmlns="http://www.w3.org/2000/svg"><path d="M8.81.372a.583.583 0 00-.828 0L3.636 4.724 1.81 2.892a.596.596 0 10-.828.858l2.24 2.24a.583.583 0 00.828 0l4.76-4.76a.583.583 0 000-.857z"/></symbol><symbol viewBox="0 0 14 9" id="chevron-down" xmlns="http://www.w3.org/2000/svg"><path d="M7 7l.707.707L7 8.414l-.707-.707L7 7zm6.707-5.293l-6 6-1.414-1.414 6-6 1.414 1.414zm-7.414 6l-6-6L1.707.293l6 6-1.414 1.414z"/></symbol><symbol viewBox="0 0 24 24" id="child" xmlns="http://www.w3.org/2000/svg"><path d="M14.658 5.333c1.01-.181 1.786-1.305 1.786-2.657 0-1.478-.928-2.676-2.073-2.676-1.146 0-2.074 1.198-2.074 2.676 0 1.356.781 2.476 1.795 2.652.053.01.084.04.068.072l-.028.057-.197.372c-.026.047-.002.086.052.086h.036c.055 0 .084.042.071.094a1.398 1.398 0 00-.028.537c.036.257.193.493.302.724.153.321.192.617.106.962-.076.306-.178.593-.217.908-.038.313.452.309.49 0 .035-.29.145-.565.216-.847.07-.283.067-.568-.004-.85-.067-.272-.219-.512-.338-.763-.11-.235-.092-.457-.019-.673a.15.15 0 01.133-.092h.028c.054 0 .077-.039.052-.087l-.197-.371-.029-.055c-.015-.03.016-.06.07-.07zm-2.614 6.909a1.674 1.674 0 100-3.348 1.674 1.674 0 000 3.348z"/><path d="M7.48 15.983a.712.712 0 001.04.971l1.56-1.74v2.036l-.208 5.89a.83.83 0 001.66.059l.155-4.415h.649l.583 4.492a.83.83 0 001.647-.214l-.824-6.267-.021-2.548 1.823-.831a.728.728 0 00.403-.48l.741-2.874a.728.728 0 10-1.41-.364l-.654 2.537-1.481.676h-2.59a.486.486 0 00-.112.014.706.706 0 00-.386.212L7.48 15.983z"/></symbol><symbol viewBox="0 0 24 24" id="chupa-chups" xmlns="http://www.w3.org/2000/svg"><path fill-rule="evenodd" clip-rule="evenodd" d="M11 18a7 7 0 100-14 7 7 0 000 14zm0-12a5 5 0 00-5 5 1 1 0 102 0 3 3 0 013-3 1 1 0 100-2zm6.293 11.293a1 1 0 011.414 0l2 2a1 1 0 01-1.414 1.414l-2-2a1 1 0 010-1.414z"/></symbol><symbol viewBox="0 0 18 18" id="clock" xmlns="http://www.w3.org/2000/svg"><path fill-rule="evenodd" clip-rule="evenodd" d="M9 18A9 9 0 109 0a9 9 0 000 18zm1-14.5a1 1 0 10-2 0v5.25C8 9.44 8.56 10 9.25 10h3.25a1 1 0 100-2H10V3.5z"/></symbol><symbol viewBox="0 0 512 512" id="eiffel-tower" xmlns="http://www.w3.org/2000/svg"><path d="M330.191 352C292.136 261.351 271 160.38 271 60V0h-30v60c0 100.38-21.136 201.351-59.191 292H241v-60h30v60h59.191zm13.393 30H168.416c-22.359 47.195-49.423 91.089-80.558 130H186c0-38.66 31.34-70 70-70s70 31.34 70 70h98.142c-31.135-38.911-58.199-82.805-80.558-130z"/></symbol><symbol viewBox="0 0 24 24" id="eye-hide" xmlns="http://www.w3.org/2000/svg"><path d="M2.22 2.22a.75.75 0 00-.073.976l.073.084 4.034 4.035a9.986 9.986 0 00-3.955 5.75.75.75 0 001.455.364 8.49 8.49 0 013.58-5.034l1.81 1.81A4 4 0 0014.8 15.86l5.919 5.92a.75.75 0 001.133-.977l-.073-.084-6.113-6.114.001-.002-6.95-6.946.002-.002-1.133-1.13L3.28 2.22a.75.75 0 00-1.06 0zM12 5.5c-1 0-1.97.148-2.889.425l1.237 1.236a8.503 8.503 0 019.899 6.272.75.75 0 001.455-.363A10.003 10.003 0 0012 5.5zm.195 3.51l3.801 3.8a4.003 4.003 0 00-3.801-3.8z" opacity=".6"/></symbol><symbol viewBox="0 0 24 24" id="eye-show" xmlns="http://www.w3.org/2000/svg"><path d="M12 9.005a4 4 0 110 8 4 4 0 010-8zM12 5.5c4.613 0 8.596 3.15 9.701 7.564a.75.75 0 11-1.455.365 8.503 8.503 0 00-16.493.004.75.75 0 01-1.455-.363A10.003 10.003 0 0112 5.5z"/></symbol><symbol viewBox="0 0 11 19" id="facebook" xmlns="http://www.w3.org/2000/svg"><path d="M2.698 19h4v-8.01h3.604l.396-3.98h-4V5a1 1 0 011-1h3V0h-3a5 5 0 00-5 5v2.01h-2l-.396 3.98h2.396V19z"/></symbol><symbol viewBox="0 0 24 24" id="food" xmlns="http://www.w3.org/2000/svg"><path d="M18 3a1 1 0 01.993.883L19 4v16a1 1 0 01-1.993.117L17 20v-5h-1a1 1 0 01-.993-.883L15 14V8c0-2.21 1.5-5 3-5zm-6 0a1 1 0 01.993.883L13 4v5a4.002 4.002 0 01-3 3.874V20a1 1 0 01-1.993.117L8 20v-7.126a4.002 4.002 0 01-2.995-3.668L5 9V4a1 1 0 011.993-.117L7 4v5a2 2 0 001 1.732V4a1 1 0 011.993-.117L10 4l.001 6.732a2 2 0 00.992-1.563L11 9V4a1 1 0 011-1z"/></symbol><symbol viewBox="0 0 16 20" id="hotel" xmlns="http://www.w3.org/2000/svg"><path d="M2.75 0A2.25 2.25 0 00.5 2.25v16.5c0 .414.336.75.75.75H3.5v-4.25a.75.75 0 01.75-.75h7.5a.75.75 0 01.75.75v4.25h2.25a.75.75 0 00.75-.75v-9a2.25 2.25 0 00-2.25-2.25h-.75V2.25A2.25 2.25 0 0010.25 0h-7.5zm.75 4.5a1 1 0 112 0 1 1 0 01-2 0zm1 6a1 1 0 110 2 1 1 0 010-2zM3.5 8a1 1 0 112 0 1 1 0 01-2 0zM8 3.5a1 1 0 110 2 1 1 0 010-2zm-1 8a1 1 0 112 0 1 1 0 01-2 0zm4.5-1a1 1 0 110 2 1 1 0 010-2zM7 8a1 1 0 112 0 1 1 0 01-2 0z"/><path d="M11 19.5V16H8.75v3.5H11zm-3.75 0V16H5v3.5h2.25z"/></symbol><symbol viewBox="0 0 21 21" id="insta" xmlns="http://www.w3.org/2000/svg"><path d="M10.5 5.5a5 5 0 100 10 5 5 0 000-10zm0 8a3 3 0 110-6 3 3 0 010 6zm5-9a1 1 0 100 2 1 1 0 000-2zm4.94 2.24a7.51 7.51 0 00-.48-2.5 5.56 5.56 0 00-3.2-3.2 7.51 7.51 0 00-2.5-.48C13.29.5 12.97.5 10.5.5 8.03.5 7.71.5 6.74.56a7.51 7.51 0 00-2.5.48 5.56 5.56 0 00-3.2 3.2 7.51 7.51 0 00-.48 2.5C.5 7.72.5 8.04.5 10.5s0 2.78.06 3.76c.017.855.179 1.7.48 2.5a5.56 5.56 0 003.2 3.2 7.51 7.51 0 002.5.48c1 0 1.29.06 3.76.06 2.47 0 2.79 0 3.76-.06a7.51 7.51 0 002.5-.48 5.56 5.56 0 003.2-3.2 7.51 7.51 0 00.48-2.5c0-1 .06-1.3.06-3.76s0-2.78-.06-3.76zm-2 7.43a6 6 0 01-.35 1.86 3.4 3.4 0 01-.82 1.25 3.26 3.26 0 01-1.25.81 5.75 5.75 0 01-1.87.36c-.94 0-1.23.05-3.66.05H6.84a6 6 0 01-1.87-.35 3.4 3.4 0 01-1.25-.82 3.26 3.26 0 01-.81-1.25 5.74 5.74 0 01-.36-1.86V6.88a5.86 5.86 0 01.36-1.87 3.3 3.3 0 01.81-1.24 3.26 3.26 0 011.25-.81 5.75 5.75 0 011.87-.36c.94-.1 1.23-.1 3.66-.1h3.66a5.87 5.87 0 011.88.36 3.3 3.3 0 011.24.81c.363.349.64.776.81 1.25a5.74 5.74 0 01.41 1.91c0 1 .05 1.25.05 3.67s-.05 2.71-.05 3.67h-.06z"/></symbol><symbol viewBox="0 0 20 20" id="location" xmlns="http://www.w3.org/2000/svg"><path fill-rule="evenodd" clip-rule="evenodd" d="M10 20c5.523 0 10-4.477 10-10S15.523 0 10 0 0 4.477 0 10s4.477 10 10 10zm2.598-11.5c-.574-.994-3.575-2.645-4.931-3.355a.478.478 0 00-.704.407c-.064 1.53-.135 4.954.439 5.948.574.994 3.575 2.645 4.932 3.354a.478.478 0 00.704-.406c.063-1.53.134-4.954-.44-5.948z"/></symbol><symbol viewBox="0 0 14 22" id="login" xmlns="http://www.w3.org/2000/svg"><path fill-rule="evenodd" clip-rule="evenodd" d="M10.621 1.669l-3.69-.58c-3.22-.506-4.83-.76-5.88.139C0 2.126 0 3.756 0 7.016V10h5.92l-2.7-3.375 1.56-1.25 4 5 .5.625-.5.625-4 5-1.56-1.25L5.92 12H0v2.983c0 3.26 0 4.89 1.05 5.788 1.05.898 2.66.645 5.881.14l3.69-.58c1.613-.254 2.419-.38 2.899-.942.48-.561.48-1.377.48-3.01V5.62c0-1.632 0-2.449-.48-3.01-.48-.561-1.286-.688-2.899-.941z"/></symbol><symbol viewBox="0 0 18 14" id="message" xmlns="http://www.w3.org/2000/svg"><path fill-rule="evenodd" clip-rule="evenodd" d="M.013 4.151C0 4.691 0 5.302 0 6v2c0 2.828 0 4.243.879 5.121C1.757 14 3.172 14 6 14h6c2.828 0 4.243 0 5.121-.879C18 12.243 18 10.828 18 8V6c0-.698 0-1.31-.013-1.849L9.97 8.604a2 2 0 01-1.942 0L.013 4.151zm.23-2.121a.96.96 0 01.243.096L9 6.856l8.514-4.73a1 1 0 01.243-.096c-.13-.474-.33-.845-.636-1.151C16.243 0 14.828 0 12 0H6C3.172 0 1.757 0 .879.879c-.307.306-.506.677-.636 1.15z"/></symbol><symbol viewBox="0 0 24 24" id="moon" xmlns="http://www.w3.org/2000/svg"><path d="M4.338 17.001c2.762 4.784 8.879 6.423 13.663 3.661a9.966 9.966 0 003.234-2.982.75.75 0 00-.365-1.132c-3.767-1.348-5.785-2.911-6.956-5.146-1.232-2.353-1.55-4.93-.689-8.464a.75.75 0 00-.768-.926 9.961 9.961 0 00-4.458 1.327C3.215 6.1 1.576 12.218 4.34 17z"/></symbol><symbol viewBox="0 0 24 24" id="moon-reverse" xmlns="http://www.w3.org/2000/svg"><path fill-rule="evenodd" clip-rule="evenodd" d="M15.12 3.646c-.254-.146-.38-.219-.522-.253a1 1 0 00-1.232.961c-.001.147.082.438.249 1.02a7.977 7.977 0 01-.764 6.2 7.976 7.976 0 01-4.987 3.761c-.588.147-.882.22-1.008.295a1 1 0 00-.217 1.547c.1.107.227.18.48.326a8 8 0 108-13.857z"/><path d="M7.864 15.335l-.122-.485.122.485zm-1.008.295l.255.43-.255-.43zm-.217 1.547l-.363.344.363-.344zm6.976-11.803l-.481.138.48-.138zm-.248-1.02l-.5-.005.5.005zm1.23-.96l-.115.486.116-.487zm-2.179 7.93a7.476 7.476 0 00.716-5.812l.961-.275a8.476 8.476 0 01-.81 6.587l-.867-.5zM7.742 14.85a7.476 7.476 0 004.676-3.526l.866.5a8.476 8.476 0 01-5.3 3.996l-.242-.97zm-.373 2.22a7.5 7.5 0 0010.245-2.746l.866.5a8.5 8.5 0 01-11.61 3.112l.5-.866zm10.245-2.746A7.5 7.5 0 0014.87 4.08l.5-.866a8.5 8.5 0 013.111 11.611l-.866-.5zm-9.63 1.496c-.296.075-.508.128-.661.171-.168.048-.212.07-.212.07l-.51-.86c.127-.075.292-.127.45-.172.171-.049.4-.106.691-.179l.243.97zM6.87 17.936c-.228-.133-.431-.244-.593-.415l.727-.687c.039.041.09.076.366.236l-.5.866zm.242-1.875a.5.5 0 00-.108.773l-.727.687a1.5 1.5 0 01.325-2.32l.51.86zm6.023-10.55c-.082-.287-.148-.514-.191-.688a1.958 1.958 0 01-.076-.474l1 .011s.002.05.045.218c.04.155.1.364.183.659l-.961.275zm1.735-1.432c-.277-.16-.332-.186-.387-.2l.231-.972c.23.054.428.174.656.306l-.5.866zm-2.002.27a1.5 1.5 0 011.846-1.442l-.231.973a.5.5 0 00-.616.48l-1-.011z"/></symbol><symbol viewBox="0 0 16 16" id="pencil" xmlns="http://www.w3.org/2000/svg"><path d="M15.5 4.43a.748.748 0 00-.217-.532l-3.18-3.18A.75.75 0 0011.57.5a.75.75 0 00-.533.217L8.915 2.84.717 11.037a.75.75 0 00-.217.533v3.18a.75.75 0 00.75.75h3.18a.75.75 0 00.57-.217l8.152-8.198L15.282 5a.892.892 0 00.165-.247.753.753 0 000-.18.526.526 0 000-.106l.053-.037zM4.122 14H2v-2.123L9.447 4.43l2.123 2.123L4.122 14zm8.505-8.505l-2.122-2.123 1.065-1.057 2.115 2.115-1.058 1.065z"/></symbol><symbol viewBox="0 0 24 24" id="person" xmlns="http://www.w3.org/2000/svg"><path d="M17.754 14a2.249 2.249 0 012.249 2.249v.918a2.75 2.75 0 01-.512 1.6C17.945 20.928 15.42 22 12 22c-3.421 0-5.944-1.072-7.486-3.236a2.75 2.75 0 01-.51-1.596v-.92a2.249 2.249 0 012.248-2.25h11.502zM12 2.005a5 5 0 110 10 5 5 0 010-10z"/></symbol><symbol viewBox="0 0 25 24" id="person-add" xmlns="http://www.w3.org/2000/svg"><path d="M11.5 17.5a6.47 6.47 0 011.023-3.5h-7.77a2.249 2.249 0 00-2.25 2.249v.92c0 .572.18 1.13.511 1.596C4.556 20.929 7.08 22 10.5 22c.932 0 1.797-.08 2.592-.24A6.475 6.475 0 0111.5 17.5zm4-10.495a5 5 0 10-10 0 5 5 0 0010 0z"/><path fill-rule="evenodd" clip-rule="evenodd" d="M23.5 17.5a5.5 5.5 0 10-11 0 5.5 5.5 0 0011 0zm-5.59-3.492L18 14l.09.008a.5.5 0 01.402.402l.008.09V17h2.504l.09.008a.5.5 0 01.402.402l.008.09-.008.09a.5.5 0 01-.402.402l-.09.008H18.5l.001 2.5-.008.09a.5.5 0 01-.402.402L18 21l-.09-.008a.5.5 0 01-.402-.402l-.008-.09V18h-2.496l-.09-.008a.5.5 0 01-.402-.402l-.008-.09.008-.09a.5.5 0 01.402-.402l.09-.008H17.5l.001-2.5.008-.09a.5.5 0 01.402-.402z"/></symbol><symbol viewBox="0 0 18 18" id="phone" xmlns="http://www.w3.org/2000/svg"><path d="M2.68 1.82l.613-.613a1 1 0 011.414 0l2.586 2.586a1 1 0 010 1.414L5.5 7a.982.982 0 00-.183 1.133 11.293 11.293 0 005.05 5.05A.982.982 0 0011.5 13l1.793-1.792a1 1 0 011.414 0l2.586 2.586a1 1 0 010 1.414l-.613.613a6 6 0 01-7.843.558l-1.208-.907a22.997 22.997 0 01-4.6-4.6l-.907-1.208A6 6 0 012.68 1.82z"/></symbol><symbol viewBox="0 0 10 6" id="select-dropdown-ico" xmlns="http://www.w3.org/2000/svg"><path d="M4.808 5.77L1.093 1.312A.8.8 0 011.708 0h6.584a.8.8 0 01.615 1.312L5.192 5.77a.25.25 0 01-.384 0z"/></symbol><symbol viewBox="0 0 20 20" id="send" xmlns="http://www.w3.org/2000/svg"><path d="M10.816 10.197l-7.531 1.256a.5.5 0 00-.386.318L.3 18.728c-.249.64.42 1.25 1.034.943l18-9a.75.75 0 000-1.342l-18-9C.722.022.052.632.301 1.272l2.598 6.957a.5.5 0 00.386.318l7.531 1.256a.2.2 0 010 .394z"/></symbol><symbol viewBox="0 0 24 24" id="standing-up-man" xmlns="http://www.w3.org/2000/svg"><path d="M11.961 4.04a2.02 2.02 0 100-4.04 2.02 2.02 0 000 4.04zm.704.964a3.678 3.678 0 00-1.545.018c-3.358.394-4.449 4.281-4.141 7.245.134 1.282 2.154 1.295 2.019 0-.112-1.08-.064-2.71.51-3.869v4.225c0 .05.005.096.007.144-.001.023-.007.042-.007.066 0 3.352-.006 6.703-.144 10.052-.061 1.49 2.247 1.483 2.308 0 .109-2.625.136-5.252.142-7.879a2.7 2.7 0 00.329.001c.006 2.627.033 5.254.14 7.878.062 1.483 2.37 1.49 2.309 0-.139-3.35-.144-6.7-.144-10.052 0-.104-.014-.199-.035-.29-.003-1.455-.059-2.912-.042-4.367.688 1.165.75 2.94.632 4.09-.136 1.294 1.885 1.281 2.018 0 .315-3.025-.828-7.013-4.356-7.262z"/></symbol><symbol viewBox="0 0 22 20" id="star" xmlns="http://www.w3.org/2000/svg"><path d="M7.644 6.208L10.327.76a.75.75 0 011.346 0l2.683 5.448 6.011.869a.75.75 0 01.416 1.279l-4.347 4.236 1.026 5.986a.75.75 0 01-1.088.79L11 16.538l-5.373 2.83a.75.75 0 01-1.09-.79l1.032-5.986-4.352-4.236a.75.75 0 01.416-1.28l6.01-.868z"/></symbol><symbol viewBox="0 0 22 20" id="star-gray" xmlns="http://www.w3.org/2000/svg"><path d="M7.644 6.208L10.327.76a.75.75 0 011.346 0l2.683 5.448 6.011.869a.75.75 0 01.416 1.279l-4.347 4.236 1.026 5.986a.75.75 0 01-1.088.79L11 16.538l-5.373 2.83a.75.75 0 01-1.09-.79l1.032-5.986-4.352-4.236a.75.75 0 01.416-1.28l6.01-.868z"/></symbol><symbol viewBox="0 0 22 20" id="star-wht" xmlns="http://www.w3.org/2000/svg"><path d="M7.644 6.208L10.327.76a.75.75 0 011.346 0l2.683 5.448 6.011.869a.75.75 0 01.416 1.279l-4.347 4.236 1.026 5.986a.75.75 0 01-1.088.79L11 16.538l-5.373 2.83a.75.75 0 01-1.09-.79l1.032-5.986-4.352-4.236a.75.75 0 01.416-1.28l6.01-.868z"/></symbol><symbol viewBox="0 0 512 512" id="swap" xmlns="http://www.w3.org/2000/svg"><path d="M92.69 216c6.23 6.24 16.39 6.24 22.62 0L136 195.31c6.24-6.23 6.24-16.39 0-22.62L115.31 152H400c26.47 0 48 21.53 48 48 0 13.23 10.77 24 24 24h16c13.23 0 24-10.77 24-24 0-61.76-50.24-112-112-112H115.31L136 67.31c6.24-6.23 6.24-16.39 0-22.62L115.31 24c-6.23-6.24-16.39-6.24-22.62 0L2.34 114.34a8.015 8.015 0 000 11.32zm326.62 80c-6.23-6.24-16.38-6.24-22.62 0L376 316.69c-6.252 6.252-6.262 16.358 0 22.62L396.69 360H112c-26.47 0-48-21.53-48-48 0-13.23-10.77-24-24-24H24c-13.23 0-24 10.77-24 24 0 61.76 50.24 112 112 112h284.69L376 444.69c-6.252 6.252-6.262 16.358 0 22.62L396.69 488c6.241 6.241 16.38 6.24 22.62 0l90.35-90.34a8.015 8.015 0 000-11.32z"/></symbol><symbol viewBox="0 0 14 14" id="tag" xmlns="http://www.w3.org/2000/svg"><path d="M12.167.833a1.5 1.5 0 011.5 1.5v3.642a2.17 2.17 0 01-.635 1.532l-5.667 5.668a2.17 2.17 0 01-3.064.001l-2.975-2.97a2.166 2.166 0 01-.002-3.064L6.99 1.47A2.167 2.167 0 018.523.833h3.644zm-1.834 2.335a1 1 0 100 2 1 1 0 000-2z"/></symbol><symbol viewBox="0 0 16 20" id="unlock" xmlns="http://www.w3.org/2000/svg"><path d="M8 .001a4 4 0 013.771 2.666 1 1 0 01-1.84.774l-.045-.107a2 2 0 00-3.88.517L6.002 4v1.999h7.749a2.25 2.25 0 012.245 2.097L16 8.25v9.496a2.25 2.25 0 01-2.096 2.245l-.154.005H2.25A2.25 2.25 0 01.005 17.9L0 17.746V8.25a2.25 2.25 0 012.096-2.245L2.25 6l1.751-.001v-2A3.999 3.999 0 018 .002zm0 11.498a1.499 1.499 0 100 2.998 1.499 1.499 0 000-2.998z"/></symbol><symbol viewBox="0 0 24 24" id="weather-sunny" xmlns="http://www.w3.org/2000/svg"><path d="M11.996 18.532a1 1 0 01.993.883l.007.117v1.456a1 1 0 01-1.993.116l-.007-.116v-1.456a1 1 0 011-1zm6.037-1.932l1.03 1.03a1 1 0 01-1.415 1.413l-1.03-1.03a1 1 0 011.415-1.413zm-10.66 0a1 1 0 010 1.414l-1.029 1.03a1 1 0 01-1.414-1.415l1.03-1.03a1 1 0 011.413 0zM12.01 6.472a5.525 5.525 0 110 11.05 5.525 5.525 0 010-11.05zm8.968 4.546a1 1 0 01.117 1.993l-.117.007h-1.456a1 1 0 01-.116-1.994l.116-.006h1.456zM4.479 10.99a1 1 0 01.116 1.993l-.116.007H3.023a1 1 0 01-.117-1.994l.117-.006h1.456zm1.77-6.116l.095.083 1.03 1.03a1 1 0 01-1.32 1.497L5.958 7.4 4.93 6.37a1 1 0 011.32-1.496zm12.813.083a1 1 0 01.083 1.32l-.083.094-1.03 1.03a1 1 0 01-1.497-1.32l.084-.095 1.029-1.03a1 1 0 011.414 0zM12 2.013a1 1 0 01.993.883l.007.117v1.455a1 1 0 01-1.993.117L11 4.468V3.013a1 1 0 011-1z"/></symbol><symbol viewBox="0 0 23 17" id="yout" xmlns="http://www.w3.org/2000/svg"><path d="M22.5 6.21a8.499 8.499 0 00-.91-4.13 2.92 2.92 0 00-1.72-1A78.36 78.36 0 0011.5.77a78.45 78.45 0 00-8.34.3 2.87 2.87 0 00-1.46.74C.8 2.64.7 4.06.6 5.26a48.29 48.29 0 000 6.48 9.55 9.55 0 00.3 2c.12.505.365.972.71 1.36a2.86 2.86 0 001.49.78c2.156.266 4.328.376 6.5.33 3.5.05 6.57 0 10.2-.28a2.88 2.88 0 001.53-.78c.28-.28.49-.623.61-1 .358-1.097.533-2.246.52-3.4.04-.56.04-3.94.04-4.54zM9.24 11.35V5.16l5.92 3.11c-1.66.92-3.85 1.96-5.92 3.08z"/></symbol></svg>