<svg width="20" height="20" viewBox="0 0 20 20" fill="none" xmlns="http://www.w3.org/2000/svg"><path d="M10 0C4.475 0 0 4.479 0 10c0 5.524 4.476 10 10 10 5.522 0 10-4.476 10-10 0-5.522-4.478-10-10-10zm-.781 5.47l.084-.073a.75.75 0 0 1 .883-.007l.094.08.072.084a.75.75 0 0 1 .007.882l-.08.094L7.56 9.25h6.69l.102.007a.75.75 0 0 1 .641.641L15 10l-.007.102a.75.75 0 0 1-.641.641l-.102.007H7.56l2.72 2.72.073.085a.75.75 0 0 1-1.05 1.049l-.083-.073-4.002-4-.072-.084a.75.75 0 0 1-.008-.883l.08-.093L9.22 5.47l.084-.073-.084.073z" fill="#FC654C"/></svg>