<svg width="24" height="24" viewBox="0 0 24 24" fill="none" xmlns="http://www.w3.org/2000/svg"><path fill-rule="evenodd" clip-rule="evenodd" d="M12.398 17.804C13.881 17.034 19 14.016 19 9A7 7 0 1 0 5 9c0 5.016 5.119 8.035 6.602 8.804a.855.855 0 0 0 .796 0zM12 12a3 3 0 1 0 0-6 3 3 0 0 0 0 6z" fill="#fff"/><path fill-rule="evenodd" clip-rule="evenodd" d="M17.26 15.904a1 1 0 0 1 1.398-.207C19.406 16.252 20 17.032 20 18s-.594 1.748-1.342 2.303c-.756.561-1.776.983-2.918 1.266-1.15.285-2.44.431-3.74.431-1.3 0-2.589-.146-3.74-.431-1.142-.283-2.162-.705-2.918-1.266C4.594 19.748 4 18.968 4 18s.594-1.748 1.342-2.303a1 1 0 0 1 1.192 1.606C6.053 17.66 6 17.915 6 18c0 .085.053.34.534.697.472.35 1.22.686 2.206.93.977.242 2.103.373 3.26.373 1.157 0 2.283-.131 3.26-.373.987-.244 1.734-.58 2.206-.93.482-.357.534-.612.534-.697 0-.085-.052-.34-.534-.697a1 1 0 0 1-.207-1.399z" fill="#fff"/></svg>