<svg width="12" height="13" viewBox="0 0 12 13" fill="none" xmlns="http://www.w3.org/2000/svg"><path d="M6 10.212a.522.522 0 0 0 .485-.327.535.535 0 0 0-.114-.578.523.523 0 0 0-.896.375c0 .14.055.275.154.375.098.1.232.155.371.155zm2.625 0a.522.522 0 0 0 .485-.327.535.535 0 0 0-.114-.578.523.523 0 0 0-.896.375c0 .14.055.275.154.375.098.1.232.155.371.155zm0-2.121a.521.521 0 0 0 .485-.327.535.535 0 0 0-.114-.578.523.523 0 0 0-.896.375c0 .14.055.275.154.375a.523.523 0 0 0 .371.155zM6 8.09a.521.521 0 0 0 .485-.327.535.535 0 0 0-.114-.578.523.523 0 0 0-.896.375c0 .14.055.275.154.375A.523.523 0 0 0 6 8.09zm3.675-6.364H9.15v-.53a.533.533 0 0 0-.154-.375.522.522 0 0 0-.896.375v.53H3.9v-.53a.533.533 0 0 0-.154-.375.522.522 0 0 0-.896.375v.53h-.525a1.57 1.57 0 0 0-1.114.466A1.6 1.6 0 0 0 .75 3.318v7.424c0 .422.166.827.461 1.125.296.299.696.466 1.114.466h7.35c.418 0 .818-.167 1.114-.466a1.6 1.6 0 0 0 .461-1.125V3.318c0-.422-.166-.826-.461-1.125a1.567 1.567 0 0 0-1.114-.466zm.525 9.015a.53.53 0 0 1-.154.375.522.522 0 0 1-.371.156h-7.35a.522.522 0 0 1-.371-.156.533.533 0 0 1-.154-.375V5.97h8.4v4.772zm0-5.833H1.8V3.32c0-.141.055-.276.154-.376a.522.522 0 0 1 .371-.155h.525v.53c0 .14.055.276.154.375a.522.522 0 0 0 .896-.375v-.53h4.2v.53c0 .14.055.276.154.375a.522.522 0 0 0 .896-.375v-.53h.525c.14 0 .273.056.371.155.099.1.154.235.154.375V4.91zM3.375 8.091a.521.521 0 0 0 .485-.327.535.535 0 0 0-.114-.578.523.523 0 0 0-.896.375c0 .14.055.275.154.375a.523.523 0 0 0 .371.155zm0 2.121a.522.522 0 0 0 .485-.327.535.535 0 0 0-.114-.578.523.523 0 0 0-.896.375c0 .14.055.275.154.375.098.1.232.155.371.155z" fill="#828282"/></svg>