<svg width="18" height="18" viewBox="0 0 18 18" fill="none" xmlns="http://www.w3.org/2000/svg"><path d="M11.85 2.25c1.117 0 2.092.76 2.364 1.845l.289 1.155h.684c.285 0 .52.212.558.486l.005.077c0 .284-.212.52-.486.557l-.076.005h-.402l.155.62c.487.296.812.831.812 1.442v6.373c0 .725-.588 1.313-1.312 1.313h-1.129A1.312 1.312 0 0 1 12 14.81v-.935H6.002v.935c0 .725-.588 1.313-1.312 1.313H3.563A1.312 1.312 0 0 1 2.25 14.81V8.437c0-.61.325-1.146.811-1.442l.156-.62h-.405a.563.563 0 0 1-.557-.486l-.005-.077c0-.284.212-.52.486-.557l.076-.005h.685l.29-1.154A2.438 2.438 0 0 1 6.15 2.25h5.699zM4.878 13.875H3.374l.001.935c0 .104.084.188.188.188H4.69a.188.188 0 0 0 .187-.188v-.935zm9.75 0h-1.504l.001.935c0 .104.084.188.188.188h1.128a.188.188 0 0 0 .187-.188v-.935zM10.313 10.5H7.687l-.077.005a.563.563 0 0 0 0 1.115l.077.005h2.626l.076-.005a.563.563 0 0 0-.076-1.12zM12.75 9a.75.75 0 1 0 0 1.5.75.75 0 0 0 0-1.5zm-7.5 0a.75.75 0 1 0 0 1.5.75.75 0 0 0 0-1.5zm6.6-5.625h-5.7c-.602 0-1.127.41-1.273.994L4.283 6.75h9.437l-.597-2.382a1.312 1.312 0 0 0-1.273-.993z" fill="#FC654C"/></svg>