<svg width="24" height="24" viewBox="0 0 24 24" fill="none" xmlns="http://www.w3.org/2000/svg"><path d="M14.658 5.333c1.01-.181 1.786-1.305 1.786-2.657 0-1.478-.928-2.676-2.073-2.676-1.146 0-2.074 1.198-2.074 2.676 0 1.356.781 2.476 1.795 2.652.053.01.084.04.068.072l-.028.057-.197.372c-.026.047-.002.086.052.086h.036c.055 0 .084.042.071.094a1.398 1.398 0 0 0-.028.537c.036.257.193.493.302.724.153.321.192.617.106.962-.076.306-.178.593-.217.908-.038.313.452.309.49 0 .035-.29.145-.565.216-.847.07-.283.067-.568-.004-.85-.067-.272-.219-.512-.338-.763-.11-.235-.092-.457-.019-.673a.15.15 0 0 1 .133-.092h.028c.054 0 .077-.039.052-.087l-.197-.371-.029-.055c-.015-.03.016-.06.07-.07zm-2.614 6.909a1.674 1.674 0 1 0 0-3.348 1.674 1.674 0 0 0 0 3.348z" fill="#FC654C"/><path d="M7.48 15.983a.712.712 0 0 0 1.04.971l1.56-1.74v2.036l-.208 5.89a.83.83 0 0 0 1.66.059l.155-4.415h.649l.583 4.492a.83.83 0 0 0 1.647-.214l-.824-6.267-.021-2.548 1.823-.831a.728.728 0 0 0 .403-.48l.741-2.874a.728.728 0 1 0-1.41-.364l-.654 2.537-1.481.676h-2.59a.486.486 0 0 0-.112.014.706.706 0 0 0-.386.212L7.48 15.983z" fill="#FC654C"/></svg>