<svg width="16" height="20" viewBox="0 0 16 20" fill="none" xmlns="http://www.w3.org/2000/svg"><path d="M2.75 0A2.25 2.25 0 0 0 .5 2.25v16.5c0 .414.336.75.75.75H3.5v-4.25a.75.75 0 0 1 .75-.75h7.5a.75.75 0 0 1 .75.75v4.25h2.25a.75.75 0 0 0 .75-.75v-9a2.25 2.25 0 0 0-2.25-2.25h-.75V2.25A2.25 2.25 0 0 0 10.25 0h-7.5zm.75 4.5a1 1 0 1 1 2 0 1 1 0 0 1-2 0zm1 6a1 1 0 1 1 0 2 1 1 0 0 1 0-2zM3.5 8a1 1 0 1 1 2 0 1 1 0 0 1-2 0zM8 3.5a1 1 0 1 1 0 2 1 1 0 0 1 0-2zm-1 8a1 1 0 1 1 2 0 1 1 0 0 1-2 0zm4.5-1a1 1 0 1 1 0 2 1 1 0 0 1 0-2zM7 8a1 1 0 1 1 2 0 1 1 0 0 1-2 0z" fill="#fff"/><path d="M11 19.5V16H8.75v3.5H11zm-3.75 0V16H5v3.5h2.25z" fill="#fff"/></svg>