<svg width="21" height="21" viewBox="0 0 21 21" fill="none" xmlns="http://www.w3.org/2000/svg"><path d="M10.5 5.5a5 5 0 1 0 0 10 5 5 0 0 0 0-10zm0 8a3 3 0 1 1 0-6 3 3 0 0 1 0 6zm5-9a1 1 0 1 0 0 2 1 1 0 0 0 0-2zm4.94 2.24a7.51 7.51 0 0 0-.48-2.5 5.56 5.56 0 0 0-3.2-3.2 7.51 7.51 0 0 0-2.5-.48C13.29.5 12.97.5 10.5.5 8.03.5 7.71.5 6.74.56a7.51 7.51 0 0 0-2.5.48 5.56 5.56 0 0 0-3.2 3.2 7.51 7.51 0 0 0-.48 2.5C.5 7.72.5 8.04.5 10.5s0 2.78.06 3.76c.017.855.179 1.7.48 2.5a5.56 5.56 0 0 0 3.2 3.2 7.51 7.51 0 0 0 2.5.48c1 0 1.29.06 3.76.06 2.47 0 2.79 0 3.76-.06a7.51 7.51 0 0 0 2.5-.48 5.56 5.56 0 0 0 3.2-3.2 7.51 7.51 0 0 0 .48-2.5c0-1 .06-1.3.06-3.76s0-2.78-.06-3.76zm-2 7.43a6 6 0 0 1-.35 1.86 3.4 3.4 0 0 1-.82 1.25 3.26 3.26 0 0 1-1.25.81 5.75 5.75 0 0 1-1.87.36c-.94 0-1.23.05-3.66.05H6.84a6 6 0 0 1-1.87-.35 3.4 3.4 0 0 1-1.25-.82 3.26 3.26 0 0 1-.81-1.25 5.74 5.74 0 0 1-.36-1.86V6.88a5.86 5.86 0 0 1 .36-1.87 3.3 3.3 0 0 1 .81-1.24 3.26 3.26 0 0 1 1.25-.81 5.75 5.75 0 0 1 1.87-.36c.94-.1 1.23-.1 3.66-.1h3.66a5.87 5.87 0 0 1 1.88.36 3.3 3.3 0 0 1 1.24.81c.363.349.64.776.81 1.25a5.74 5.74 0 0 1 .41 1.91c0 1 .05 1.25.05 3.67s-.05 2.71-.05 3.67h-.06z" fill="#fff"/></svg>