<svg width="24" height="24" viewBox="0 0 24 24" fill="none" xmlns="http://www.w3.org/2000/svg"><path fill-rule="evenodd" clip-rule="evenodd" d="M15.12 3.646c-.254-.146-.38-.219-.522-.253a1 1 0 0 0-1.232.961c-.001.147.082.438.249 1.02a7.977 7.977 0 0 1-.764 6.2 7.976 7.976 0 0 1-4.987 3.761c-.588.147-.882.22-1.008.295a1 1 0 0 0-.217 1.547c.1.107.227.18.48.326a8 8 0 1 0 8-13.857z" fill="#262626"/><path d="M7.864 15.335l-.122-.485.122.485zm-1.008.295l.255.43-.255-.43zm-.217 1.547l-.363.344.363-.344zm6.976-11.803l-.481.138.48-.138zm-.248-1.02l-.5-.005.5.005zm1.23-.96l-.115.486.116-.487zm-2.179 7.93a7.476 7.476 0 0 0 .716-5.812l.961-.275a8.476 8.476 0 0 1-.81 6.587l-.867-.5zM7.742 14.85a7.476 7.476 0 0 0 4.676-3.526l.866.5a8.476 8.476 0 0 1-5.3 3.996l-.242-.97zm-.373 2.22a7.5 7.5 0 0 0 10.245-2.746l.866.5a8.5 8.5 0 0 1-11.61 3.112l.5-.866zm10.245-2.746A7.5 7.5 0 0 0 14.87 4.08l.5-.866a8.5 8.5 0 0 1 3.111 11.611l-.866-.5zm-9.63 1.496c-.296.075-.508.128-.661.171-.168.048-.212.07-.212.07l-.51-.86c.127-.075.292-.127.45-.172.171-.049.4-.106.691-.179l.243.97zM6.87 17.936c-.228-.133-.431-.244-.593-.415l.727-.687c.039.041.09.076.366.236l-.5.866zm.242-1.875a.5.5 0 0 0-.108.773l-.727.687a1.5 1.5 0 0 1 .325-2.32l.51.86zm6.023-10.55c-.082-.287-.148-.514-.191-.688a1.958 1.958 0 0 1-.076-.474l1 .011s.002.05.045.218c.04.155.1.364.183.659l-.961.275zm1.735-1.432c-.277-.16-.332-.186-.387-.2l.231-.972c.23.054.428.174.656.306l-.5.866zm-2.002.27a1.5 1.5 0 0 1 1.846-1.442l-.231.973a.5.5 0 0 0-.616.48l-1-.011z" fill="#262626"/></svg>