<svg width="16" height="16" viewBox="0 0 16 16" fill="none" xmlns="http://www.w3.org/2000/svg"><path d="M15.5 4.43a.748.748 0 0 0-.217-.532l-3.18-3.18A.75.75 0 0 0 11.57.5a.75.75 0 0 0-.533.217L8.915 2.84.717 11.037a.75.75 0 0 0-.217.533v3.18a.75.75 0 0 0 .75.75h3.18a.75.75 0 0 0 .57-.217l8.152-8.198L15.282 5a.892.892 0 0 0 .165-.247.753.753 0 0 0 0-.18.526.526 0 0 0 0-.106l.053-.037zM4.122 14H2v-2.123L9.447 4.43l2.123 2.123L4.122 14zm8.505-8.505l-2.122-2.123 1.065-1.057 2.115 2.115-1.058 1.065z" fill="#262626"/></svg>