<svg width="25" height="24" viewBox="0 0 25 24" fill="none" xmlns="http://www.w3.org/2000/svg"><path d="M11.5 17.5a6.47 6.47 0 0 1 1.023-3.5h-7.77a2.249 2.249 0 0 0-2.25 2.249v.92c0 .572.18 1.13.511 1.596C4.556 20.929 7.08 22 10.5 22c.932 0 1.797-.08 2.592-.24A6.475 6.475 0 0 1 11.5 17.5zm4-10.495a5 5 0 1 0-10 0 5 5 0 0 0 10 0z" fill="#fff"/><path fill-rule="evenodd" clip-rule="evenodd" d="M23.5 17.5a5.5 5.5 0 1 0-11 0 5.5 5.5 0 0 0 11 0zm-5.59-3.492L18 14l.09.008a.5.5 0 0 1 .402.402l.008.09V17h2.504l.09.008a.5.5 0 0 1 .402.402l.008.09-.008.09a.5.5 0 0 1-.402.402l-.09.008H18.5l.001 2.5-.008.09a.5.5 0 0 1-.402.402L18 21l-.09-.008a.5.5 0 0 1-.402-.402l-.008-.09V18h-2.496l-.09-.008a.5.5 0 0 1-.402-.402l-.008-.09.008-.09a.5.5 0 0 1 .402-.402l.09-.008H17.5l.001-2.5.008-.09a.5.5 0 0 1 .402-.402z" fill="#fff"/></svg>