<svg width="24" height="24" viewBox="0 0 24 24" fill="none" xmlns="http://www.w3.org/2000/svg"><path d="M11.961 4.04a2.02 2.02 0 1 0 0-4.04 2.02 2.02 0 0 0 0 4.04zm.704.964a3.678 3.678 0 0 0-1.545.018c-3.358.394-4.449 4.281-4.141 7.245.134 1.282 2.154 1.295 2.019 0-.112-1.08-.064-2.71.51-3.869v4.225c0 .05.005.096.007.144-.001.023-.007.042-.007.066 0 3.352-.006 6.703-.144 10.052-.061 1.49 2.247 1.483 2.308 0 .109-2.625.136-5.252.142-7.879a2.7 2.7 0 0 0 .329.001c.006 2.627.033 5.254.14 7.878.062 1.483 2.37 1.49 2.309 0-.139-3.35-.144-6.7-.144-10.052 0-.104-.014-.199-.035-.29-.003-1.455-.059-2.912-.042-4.367.688 1.165.75 2.94.632 4.09-.136 1.294 1.885 1.281 2.018 0 .315-3.025-.828-7.013-4.356-7.262z" fill="#FC654C"/></svg>