<svg width="860" height="274" viewBox="0 0 860 274" fill="none" xmlns="http://www.w3.org/2000/svg"><path d="M9.432 23.36c-2.528 0-4.624-.832-6.288-2.496C1.496 19.184.672 17.096.672 14.6c0-2.496.824-4.576 2.472-6.24 1.664-1.68 3.76-2.52 6.288-2.52 1.52 0 2.928.36 4.224 1.08 1.296.72 2.312 1.688 3.048 2.904l-3.72 2.136c-.32-.592-.8-1.056-1.44-1.392-.624-.352-1.328-.528-2.112-.528-1.344 0-2.432.424-3.264 1.272-.816.832-1.224 1.928-1.224 3.288 0 1.36.408 2.464 1.224 3.312.832.832 1.92 1.248 3.264 1.248.784 0 1.488-.168 2.112-.504.64-.352 1.12-.832 1.44-1.44l3.72 2.16c-.736 1.232-1.752 2.208-3.048 2.928-1.28.704-2.688 1.056-4.224 1.056zM28.338 11v3.816h-3.432V23h-3.984v-8.184h-3.48V11h10.896zm8.73-.336c1.6 0 2.935.608 4.007 1.824 1.088 1.2 1.632 2.704 1.632 4.512 0 1.808-.544 3.32-1.632 4.536-1.072 1.2-2.408 1.8-4.008 1.8-1.456 0-2.592-.48-3.408-1.44V27.8h-3.984V11h3.984v1.104c.816-.96 1.952-1.44 3.408-1.44zm-2.713 8.232c.464.48 1.072.72 1.824.72s1.36-.24 1.824-.72c.464-.48.696-1.112.696-1.896 0-.784-.232-1.416-.696-1.896-.464-.48-1.072-.72-1.824-.72s-1.36.24-1.824.72c-.464.48-.696 1.112-.696 1.896 0 .784.232 1.416.696 1.896zM52.913 11h3.984v12h-3.984v-1.104c-.816.96-1.952 1.44-3.408 1.44-1.6 0-2.944-.6-4.032-1.8-1.072-1.216-1.608-2.728-1.608-4.536 0-1.808.536-3.312 1.608-4.512 1.088-1.216 2.432-1.824 4.032-1.824 1.456 0 2.592.48 3.408 1.44V11zm-4.344 7.896c.464.48 1.072.72 1.824.72s1.36-.24 1.824-.72c.464-.48.696-1.112.696-1.896 0-.784-.232-1.416-.696-1.896-.464-.48-1.072-.72-1.824-.72s-1.36.24-1.824.72c-.464.48-.696 1.112-.696 1.896 0 .784.232 1.416.696 1.896zM66.72 11h3.984v12H66.72v-4.128h-3.53V23h-3.984V11h3.984v4.128h3.528V11zm14.836 0h3.072v12H80.74v-5.616L76.083 23h-3.072V11H76.9v5.616L81.555 11zm16.514 8.232h2.04v6.984h-3.84V23h-9.336V11h3.984v8.232h3.168V11h3.984v8.232zM109.726 11h3.984v12h-3.984v-1.104c-.816.96-1.952 1.44-3.408 1.44-1.6 0-2.944-.6-4.032-1.8-1.072-1.216-1.608-2.728-1.608-4.536 0-1.808.536-3.312 1.608-4.512 1.088-1.216 2.432-1.824 4.032-1.824 1.456 0 2.592.48 3.408 1.44V11zm-4.344 7.896c.464.48 1.072.72 1.824.72s1.36-.24 1.824-.72c.464-.48.696-1.112.696-1.896 0-.784-.232-1.416-.696-1.896-.464-.48-1.072-.72-1.824-.72s-1.36.24-1.824.72c-.464.48-.696 1.112-.696 1.896 0 .784.232 1.416.696 1.896zM128.969 11h3.984v12h-3.984v-4.128h-3.528V23h-3.984V11h3.984v4.128h3.528V11zm9.821 7.464c.4.976 1.296 1.464 2.688 1.464.864 0 1.592-.28 2.184-.84l2.88 2.016c-1.184 1.488-2.904 2.232-5.16 2.232-2.032 0-3.664-.592-4.896-1.776-1.216-1.2-1.824-2.712-1.824-4.536 0-1.808.6-3.32 1.8-4.536 1.2-1.216 2.728-1.824 4.584-1.824 1.792 0 3.272.6 4.44 1.8 1.168 1.2 1.752 2.704 1.752 4.512 0 .528-.056 1.024-.168 1.488h-8.28zm-.048-2.76h4.608c-.32-1.12-1.072-1.68-2.256-1.68-1.232 0-2.016.56-2.352 1.68zM161.898 11h3.984v12h-3.984v-4.128h-3.528V23h-3.984V11h3.984v4.128h3.528V11zm14.742 0h3.984v12h-3.984v-1.104c-.816.96-1.952 1.44-3.408 1.44-1.6 0-2.944-.6-4.032-1.8-1.072-1.216-1.608-2.728-1.608-4.536 0-1.808.536-3.312 1.608-4.512 1.088-1.216 2.432-1.824 4.032-1.824 1.456 0 2.592.48 3.408 1.44V11zm-4.344 7.896c.464.48 1.072.72 1.824.72s1.36-.24 1.824-.72c.464-.48.696-1.112.696-1.896 0-.784-.232-1.416-.696-1.896-.464-.48-1.072-.72-1.824-.72s-1.36.24-1.824.72c-.464.48-.696 1.112-.696 1.896 0 .784.232 1.416.696 1.896zm12.557-9.192v-3.36h7.752v3.36h-7.752zM191.477 11h3.072v12h-3.888v-5.616L186.005 23h-3.072V11h3.888v5.616L191.477 11zm16.706 8.232h1.56v6.984h-3.84V23h-6.24v3.216h-3.84v-6.984h1.44c.608-.992.912-2.352.912-4.08V11h10.008v8.232zm-6.792 0h2.904v-4.68h-2.232v.6c0 1.6-.224 2.96-.672 4.08zm13.032-.768c.4.976 1.296 1.464 2.688 1.464.864 0 1.592-.28 2.184-.84l2.88 2.016c-1.184 1.488-2.904 2.232-5.16 2.232-2.032 0-3.664-.592-4.896-1.776-1.216-1.2-1.824-2.712-1.824-4.536 0-1.808.6-3.32 1.8-4.536 1.2-1.216 2.728-1.824 4.584-1.824 1.792 0 3.272.6 4.44 1.8 1.168 1.2 1.752 2.704 1.752 4.512 0 .528-.056 1.024-.168 1.488h-8.28zm-.048-2.76h4.608c-.32-1.12-1.072-1.68-2.256-1.68-1.232 0-2.016.56-2.352 1.68zM232.094 11h3.984v12h-3.984v-4.128h-3.528V23h-3.984V11h3.984v4.128h3.528V11zm14.741 0h3.984v12h-3.984v-1.104c-.816.96-1.952 1.44-3.408 1.44-1.6 0-2.944-.6-4.032-1.8-1.072-1.216-1.608-2.728-1.608-4.536 0-1.808.536-3.312 1.608-4.512 1.088-1.216 2.432-1.824 4.032-1.824 1.456 0 2.592.48 3.408 1.44V11zm-4.344 7.896c.464.48 1.072.72 1.824.72s1.36-.24 1.824-.72c.464-.48.696-1.112.696-1.896 0-.784-.232-1.416-.696-1.896-.464-.48-1.072-.72-1.824-.72s-1.36.24-1.824.72c-.464.48-.696 1.112-.696 1.896 0 .784.232 1.416.696 1.896zM504.344 250.2h4.272V267h-4.272v-6.456h-4.728V267h-4.296v-16.8h4.296v6.216h4.728V250.2zm12.601 17.136c-1.776 0-3.288-.608-4.536-1.824-1.248-1.232-1.872-2.736-1.872-4.512 0-1.776.624-3.272 1.872-4.488 1.248-1.232 2.76-1.848 4.536-1.848 1.792 0 3.304.616 4.536 1.848 1.248 1.216 1.872 2.712 1.872 4.488 0 1.776-.624 3.28-1.872 4.512-1.232 1.216-2.744 1.824-4.536 1.824zm0-3.84c.704 0 1.28-.232 1.728-.696.464-.464.696-1.064.696-1.8s-.232-1.336-.696-1.8c-.448-.464-1.024-.696-1.728-.696-.688 0-1.264.232-1.728.696-.448.464-.672 1.064-.672 1.8s.224 1.336.672 1.8c.464.464 1.04.696 1.728.696zm19.43 3.84c-1.776 0-3.288-.608-4.536-1.824-1.248-1.232-1.872-2.736-1.872-4.512 0-1.776.624-3.272 1.872-4.488 1.248-1.232 2.76-1.848 4.536-1.848 1.792 0 3.304.616 4.536 1.848 1.248 1.216 1.872 2.712 1.872 4.488 0 1.776-.624 3.28-1.872 4.512-1.232 1.216-2.744 1.824-4.536 1.824zm0-3.84c.704 0 1.28-.232 1.728-.696.464-.464.696-1.064.696-1.8s-.232-1.336-.696-1.8c-.448-.464-1.024-.696-1.728-.696-.688 0-1.264.232-1.728.696-.448.464-.672 1.064-.672 1.8s.224 1.336.672 1.8c.464.464 1.04.696 1.728.696zM554.096 255v3.816h-3.432V267h-3.984v-8.184h-3.48V255h10.896zm11.939 8.232h1.56v6.984h-3.84V267h-6.24v3.216h-3.84v-6.984h1.44c.608-.992.912-2.352.912-4.08V255h10.008v8.232zm-6.792 0h2.904v-4.68h-2.232v.6c0 1.6-.224 2.96-.672 4.08zm15.806-4.848c1.44 0 2.584.392 3.432 1.176.848.768 1.272 1.808 1.272 3.12 0 1.328-.424 2.384-1.272 3.168-.832.768-1.976 1.152-3.432 1.152h-5.952v-12h3.984v3.384h1.968zm5.688-3.384h3.984v12h-3.984v-12zm-5.928 8.664c.32 0 .576-.088.768-.264.192-.176.288-.416.288-.72a.9.9 0 0 0-.288-.696c-.192-.176-.448-.264-.768-.264h-1.728v1.944h1.728zM599.051 267h-4.512l-2.088-2.952-2.088 2.952h-4.488l4.344-6.12-4.176-5.88h4.488l1.92 2.712 1.92-2.712h4.512l-4.176 5.88 4.344 6.12zm19.833-12v12h-3.84v-5.784l-2.568 3.984h-.432l-2.544-3.96V267h-3.864v-12h3.864l2.76 4.32 2.784-4.32h3.84zm8.267 3.384c1.44 0 2.584.392 3.432 1.176.848.768 1.272 1.808 1.272 3.12 0 1.328-.424 2.384-1.272 3.168-.832.768-1.976 1.152-3.432 1.152h-5.952v-12h3.984v3.384h1.968zm5.688-3.384h3.984v12h-3.984v-12zm-5.928 8.664c.32 0 .576-.088.768-.264.192-.176.288-.416.288-.72a.9.9 0 0 0-.288-.696c-.192-.176-.448-.264-.768-.264h-1.728v1.944h1.728zM652.078 255h3.984v12h-3.984v-4.128h-3.528V267h-3.984v-12h3.984v4.128h3.528V255zm14.741 0h3.984v12h-3.984v-1.104c-.816.96-1.952 1.44-3.408 1.44-1.6 0-2.944-.6-4.032-1.8-1.072-1.216-1.608-2.728-1.608-4.536 0-1.808.536-3.312 1.608-4.512 1.088-1.216 2.432-1.824 4.032-1.824 1.456 0 2.592.48 3.408 1.44V255zm-4.344 7.896c.464.48 1.072.72 1.824.72s1.36-.24 1.824-.72c.464-.48.696-1.112.696-1.896 0-.784-.232-1.416-.696-1.896-.464-.48-1.072-.72-1.824-.72s-1.36.24-1.824.72c-.464.48-.696 1.112-.696 1.896 0 .784.232 1.416.696 1.896zm12.558-9.192v-3.36h7.752v3.36h-7.752zm6.624 1.296h3.072v12h-3.888v-5.616L676.185 267h-3.072v-12h3.888v5.616l4.656-5.616zm16.706 8.232h1.56v6.984h-3.84V267h-6.24v3.216h-3.84v-6.984h1.44c.608-.992.912-2.352.912-4.08V255h10.008v8.232zm-6.792 0h2.904v-4.68h-2.232v.6c0 1.6-.224 2.96-.672 4.08zm13.031-.768c.4.976 1.296 1.464 2.688 1.464.864 0 1.592-.28 2.184-.84l2.88 2.016c-1.184 1.488-2.904 2.232-5.16 2.232-2.032 0-3.664-.592-4.896-1.776-1.216-1.2-1.824-2.712-1.824-4.536 0-1.808.6-3.32 1.8-4.536 1.2-1.216 2.728-1.824 4.584-1.824 1.792 0 3.272.6 4.44 1.8 1.168 1.2 1.752 2.704 1.752 4.512 0 .528-.056 1.024-.168 1.488h-8.28zm-.048-2.76h4.608c-.32-1.12-1.072-1.68-2.256-1.68-1.232 0-2.016.56-2.352 1.68zM728.009 255v12h-3.84v-5.784l-2.568 3.984h-.432l-2.544-3.96V267h-3.864v-12h3.864l2.76 4.32 2.784-4.32h3.84zm16.968 5.88c1.12.528 1.68 1.416 1.68 2.664 0 1.056-.36 1.896-1.08 2.52-.72.624-1.76.936-3.12.936h-6.696v-12h6.288c1.344 0 2.376.312 3.096.936.72.624 1.08 1.464 1.08 2.52s-.416 1.864-1.248 2.424zm-3.528-2.904h-1.872v1.584h1.872c.64 0 .96-.256.96-.768 0-.544-.32-.816-.96-.816zm.312 6c.624 0 .936-.28.936-.84 0-.528-.312-.792-.936-.792h-2.184v1.632h2.184zM756.702 255h3.984v12h-3.984v-1.104c-.816.96-1.952 1.44-3.408 1.44-1.6 0-2.944-.6-4.032-1.8-1.072-1.216-1.608-2.728-1.608-4.536 0-1.808.536-3.312 1.608-4.512 1.088-1.216 2.432-1.824 4.032-1.824 1.456 0 2.592.48 3.408 1.44V255zm-4.344 7.896c.464.48 1.072.72 1.824.72s1.36-.24 1.824-.72c.464-.48.696-1.112.696-1.896 0-.784-.232-1.416-.696-1.896-.464-.48-1.072-.72-1.824-.72s-1.36.24-1.824.72c-.464.48-.696 1.112-.696 1.896 0 .784.232 1.416.696 1.896zM776.244 255v12h-3.84v-5.784l-2.568 3.984h-.432l-2.544-3.96V267h-3.864v-12h3.864l2.76 4.32 2.784-4.32h3.84zm16.968 5.88c1.12.528 1.68 1.416 1.68 2.664 0 1.056-.36 1.896-1.08 2.52-.72.624-1.76.936-3.12.936h-6.696v-12h6.288c1.344 0 2.376.312 3.096.936.72.624 1.08 1.464 1.08 2.52s-.416 1.864-1.248 2.424zm-3.528-2.904h-1.872v1.584h1.872c.64 0 .96-.256.96-.768 0-.544-.32-.816-.96-.816zm.312 6c.624 0 .936-.28.936-.84 0-.528-.312-.792-.936-.792h-2.184v1.632h2.184zm12.277 3.36c-1.824 0-3.344-.608-4.56-1.824-1.216-1.216-1.824-2.72-1.824-4.512 0-1.792.608-3.296 1.824-4.512 1.216-1.216 2.736-1.824 4.56-1.824 1.184 0 2.256.28 3.216.84.976.56 1.728 1.312 2.256 2.256l-3.408 1.968c-.432-.784-1.128-1.176-2.088-1.176-.672 0-1.232.232-1.68.696-.448.448-.672 1.032-.672 1.752s.224 1.312.672 1.776c.448.448 1.008.672 1.68.672.992 0 1.688-.4 2.088-1.2l3.408 1.968a5.83 5.83 0 0 1-2.256 2.28c-.96.56-2.032.84-3.216.84zm10.072-4.872c.4.976 1.296 1.464 2.688 1.464.864 0 1.592-.28 2.184-.84l2.88 2.016c-1.184 1.488-2.904 2.232-5.16 2.232-2.032 0-3.664-.592-4.896-1.776-1.216-1.2-1.824-2.712-1.824-4.536 0-1.808.6-3.32 1.8-4.536 1.2-1.216 2.728-1.824 4.584-1.824 1.792 0 3.272.6 4.44 1.8 1.168 1.2 1.752 2.704 1.752 4.512 0 .528-.056 1.024-.168 1.488h-8.28zm-.048-2.76h4.608c-.32-1.12-1.072-1.68-2.256-1.68-1.232 0-2.016.56-2.352 1.68zM831.12 255v3.816h-4.632V267h-3.984v-12h8.616zm11.993 8.232h1.56v6.984h-3.84V267h-6.24v3.216h-3.84v-6.984h1.44c.608-.992.912-2.352.912-4.08V255h10.008v8.232zm-6.792 0h2.904v-4.68h-2.232v.6c0 1.6-.224 2.96-.672 4.08zM854.272 255h3.984v12h-3.984v-1.104c-.816.96-1.952 1.44-3.408 1.44-1.6 0-2.944-.6-4.032-1.8-1.072-1.216-1.608-2.728-1.608-4.536 0-1.808.536-3.312 1.608-4.512 1.088-1.216 2.432-1.824 4.032-1.824 1.456 0 2.592.48 3.408 1.44V255zm-4.344 7.896c.464.48 1.072.72 1.824.72s1.36-.24 1.824-.72c.464-.48.696-1.112.696-1.896 0-.784-.232-1.416-.696-1.896-.464-.48-1.072-.72-1.824-.72s-1.36.24-1.824.72c-.464.48-.696 1.112-.696 1.896 0 .784.232 1.416.696 1.896zm-532.5-106.828v38.853h-16.703v25.504h-42.472v-25.504H185v-38.853l49.869-102.493h47.245l-50.347 102.493h26.486v-30.032h42.472v30.032h16.703zm129.089 44.335C434.428 216.134 417.487 224 395.694 224s-38.814-7.866-51.063-23.597c-12.089-15.891-18.134-37.025-18.134-63.403s6.045-47.433 18.134-63.164C356.88 57.946 373.901 50 395.694 50c21.793 0 38.734 7.945 50.823 23.836C458.766 89.567 464.89 110.622 464.89 137s-6.124 47.512-18.373 63.403zM369.208 137c0 30.351 8.829 45.526 26.486 45.526s26.485-15.175 26.485-45.526c0-30.351-8.828-45.526-26.485-45.526S369.208 106.649 369.208 137zM608 156.068v38.853h-16.703v25.504h-42.472v-25.504h-73.253v-38.853l49.869-102.493h47.245l-50.347 102.493h26.486v-30.032h42.472v30.032H608z" fill="#fff"/></svg>