<svg width="680" height="192" viewBox="0 0 680 192" fill="none" xmlns="http://www.w3.org/2000/svg"><path d="M226.48 45.72v24.912h-24.912v75.888h-25.776V70.632H150.88V45.72h75.6zm24.932 42.192c1.344-4.704 4.032-8.352 8.064-10.944 4.032-2.592 8.544-3.888 13.536-3.888v26.496c-5.472-.864-10.464.144-14.976 3.024-4.416 2.88-6.624 7.584-6.624 14.112v29.808h-23.904v-72h23.904v13.392zm79.663-13.392h23.904v72h-23.904v-6.624c-4.896 5.76-11.712 8.64-20.448 8.64-9.6 0-17.664-3.6-24.192-10.8-6.432-7.296-9.648-16.368-9.648-27.216 0-10.848 3.216-19.872 9.648-27.072 6.528-7.296 14.592-10.944 24.192-10.944 8.736 0 15.552 2.88 20.448 8.64V74.52zm-26.064 47.376c2.784 2.88 6.432 4.32 10.944 4.32 4.512 0 8.16-1.44 10.944-4.32 2.784-2.88 4.176-6.672 4.176-11.376s-1.392-8.496-4.176-11.376c-2.784-2.88-6.432-4.32-10.944-4.32-4.512 0-8.16 1.44-10.944 4.32-2.784 2.88-4.176 6.672-4.176 11.376s1.392 8.496 4.176 11.376zM415.204 74.52H441.7l-26.928 72h-25.92l-26.928-72h26.496l13.392 41.328 13.392-41.328zm51.304 44.784c2.4 5.856 7.776 8.784 16.128 8.784 5.184 0 9.552-1.68 13.104-5.04l17.28 12.096c-7.104 8.928-17.424 13.392-30.96 13.392-12.192 0-21.984-3.552-29.376-10.656-7.296-7.2-10.944-16.272-10.944-27.216 0-10.848 3.6-19.92 10.8-27.216 7.2-7.296 16.368-10.944 27.504-10.944 10.752 0 19.632 3.6 26.64 10.8 7.008 7.2 10.512 16.224 10.512 27.072 0 3.168-.336 6.144-1.008 8.928h-49.68zm-.288-16.56h27.648c-1.92-6.72-6.432-10.08-13.536-10.08-7.392 0-12.096 3.36-14.112 10.08zm61.241 43.776V41.4h23.904v105.12h-23.904zm-17.461 45V174h3.096v17.52H510zm7.466-13.44a1.882 1.882 0 0 1-1.896-1.896c0-.512.184-.96.552-1.344.384-.384.832-.576 1.344-.576.528 0 .976.192 1.344.576.384.384.576.832.576 1.344 0 .512-.192.96-.576 1.344a1.83 1.83 0 0 1-1.344.552zm-1.536 13.44v-12h3.096v12h-3.096zm16.993 0h-3.6l-4.368-5.448v5.448h-3.096v-16.8h3.096v10.08l4.128-5.28h3.696l-4.824 5.928 4.968 6.072zm3.295-4.728c.416 1.504 1.544 2.256 3.384 2.256 1.184 0 2.08-.4 2.688-1.2l2.496 1.44c-1.184 1.712-2.928 2.568-5.232 2.568-1.984 0-3.576-.6-4.776-1.8-1.2-1.2-1.8-2.712-1.8-4.536 0-1.808.592-3.312 1.776-4.512 1.184-1.216 2.704-1.824 4.56-1.824 1.76 0 3.208.608 4.344 1.824 1.152 1.216 1.728 2.72 1.728 4.512 0 .4-.04.824-.12 1.272h-9.048zm-.048-2.4h6.12c-.176-.816-.544-1.424-1.104-1.824-.544-.4-1.168-.6-1.872-.6-.832 0-1.52.216-2.064.648-.544.416-.904 1.008-1.08 1.776zm26.497-4.872h3.096v12h-3.096v-1.416c-.928 1.168-2.232 1.752-3.912 1.752-1.6 0-2.976-.608-4.128-1.824-1.136-1.232-1.704-2.736-1.704-4.512 0-1.776.568-3.272 1.704-4.488 1.152-1.232 2.528-1.848 4.128-1.848 1.68 0 2.984.584 3.912 1.752v-1.416zm-5.712 8.448c.624.624 1.416.936 2.376.936s1.752-.312 2.376-.936c.64-.64.96-1.456.96-2.448s-.32-1.8-.96-2.424c-.624-.64-1.416-.96-2.376-.96s-1.752.32-2.376.96c-.624.624-.936 1.432-.936 2.424s.312 1.808.936 2.448zm27.791-10.08h-6.72v3.984h6.528v3.168h-6.528v6.48h-3.312v-16.8h10.032v3.168zm11.63 13.632l-3.384-5.832h-2.52v5.832h-3.312v-16.8h6.72c1.552 0 2.872.544 3.96 1.632 1.088 1.088 1.632 2.4 1.632 3.936 0 1.04-.296 2.008-.888 2.904a5.589 5.589 0 0 1-2.352 1.992l3.72 6.336h-3.576zm-5.904-13.704v4.968h3.408c.624 0 1.16-.24 1.608-.72a2.56 2.56 0 0 0 .672-1.776c0-.688-.224-1.272-.672-1.752-.448-.48-.984-.72-1.608-.72h-3.408zm14.742 10.536h7.08v3.168h-10.392v-16.8h10.272v3.168h-6.96v3.576h6.36v3.12h-6.36v3.768zm12.726 0h7.08v3.168h-10.392v-16.8H624.9v3.168h-6.96v3.576h6.36v3.12h-6.36v3.768zm28.543-9.168c1.376 0 2.472.448 3.288 1.344.832.896 1.248 2.096 1.248 3.6v7.392h-3.096v-7.176c0-.72-.176-1.28-.528-1.68-.352-.4-.848-.6-1.488-.6-.704 0-1.256.232-1.656.696-.384.464-.576 1.136-.576 2.016v6.744h-3.096v-7.176c0-.72-.176-1.28-.528-1.68-.352-.4-.848-.6-1.488-.6-.688 0-1.24.232-1.656.696-.4.464-.6 1.136-.6 2.016v6.744h-3.096v-12h3.096v1.272c.72-1.072 1.832-1.608 3.336-1.608 1.472 0 2.56.576 3.264 1.728.8-1.152 1.992-1.728 3.576-1.728zm16.285.336h3.096v12h-3.096v-1.416c-.928 1.168-2.232 1.752-3.912 1.752-1.6 0-2.976-.608-4.128-1.824-1.136-1.232-1.704-2.736-1.704-4.512 0-1.776.568-3.272 1.704-4.488 1.152-1.232 2.528-1.848 4.128-1.848 1.68 0 2.984.584 3.912 1.752v-1.416zm-5.712 8.448c.624.624 1.416.936 2.376.936s1.752-.312 2.376-.936c.64-.64.96-1.456.96-2.448s-.32-1.8-.96-2.424c-.624-.64-1.416-.96-2.376-.96s-1.752.32-2.376.96c-.624.624-.936 1.432-.936 2.424s.312 1.808.936 2.448zm18.288-8.784c1.312 0 2.392.44 3.24 1.32.864.88 1.296 2.096 1.296 3.648v7.368h-3.096v-6.984c0-.8-.216-1.408-.648-1.824-.432-.432-1.008-.648-1.728-.648-.8 0-1.44.248-1.92.744s-.72 1.24-.72 2.232v6.48h-3.096v-12h3.096v1.344c.752-1.12 1.944-1.68 3.576-1.68zM3.312 14.352h7.08v3.168H0V.72h10.272v3.168h-6.96v3.576h6.36v3.12h-6.36v3.768zm20.335 3.168H20.07l-2.592-3.648-2.616 3.648h-3.576l4.392-6.12-4.2-5.88h3.576l2.424 3.384 2.424-3.384h3.552l-4.2 5.856 4.392 6.144zm8.529-12.336c1.616 0 2.992.616 4.128 1.848 1.152 1.216 1.728 2.712 1.728 4.488 0 1.776-.576 3.28-1.728 4.512-1.136 1.216-2.512 1.824-4.128 1.824-1.68 0-2.976-.584-3.888-1.752v6.216h-3.096V5.52h3.096v1.416c.912-1.168 2.208-1.752 3.888-1.752zm-2.952 8.784c.624.624 1.416.936 2.376.936s1.752-.312 2.376-.936c.64-.64.96-1.456.96-2.448s-.32-1.8-.96-2.424c-.624-.64-1.416-.96-2.376-.96s-1.752.32-2.376.96c-.624.624-.936 1.432-.936 2.424s.312 1.808.936 2.448zm10.991 3.552V0h3.096v17.52h-3.096zm16.155-1.488c-1.233 1.216-2.737 1.824-4.513 1.824-1.776 0-3.28-.608-4.512-1.824-1.216-1.232-1.824-2.736-1.824-4.512 0-1.776.608-3.272 1.824-4.488 1.232-1.232 2.736-1.848 4.512-1.848 1.776 0 3.28.616 4.512 1.848 1.232 1.216 1.848 2.712 1.848 4.488 0 1.776-.616 3.28-1.848 4.512zm-6.84-2.136c.623.624 1.4.936 2.327.936.928 0 1.704-.312 2.328-.936.624-.624.936-1.416.936-2.376s-.312-1.752-.936-2.376c-.624-.624-1.4-.936-2.328-.936-.928 0-1.704.312-2.328.936-.608.624-.912 1.416-.912 2.376s.304 1.752.912 2.376zm13.961-6.312c.288-.768.76-1.344 1.416-1.728a4.419 4.419 0 0 1 2.232-.576v3.456c-.944-.112-1.792.08-2.544.576-.736.496-1.104 1.32-1.104 2.472v5.736h-3.096v-12h3.096v2.064zm7.629 5.208c.416 1.504 1.544 2.256 3.384 2.256 1.184 0 2.08-.4 2.688-1.2l2.496 1.44c-1.184 1.712-2.928 2.568-5.232 2.568-1.984 0-3.576-.6-4.776-1.8-1.2-1.2-1.8-2.712-1.8-4.536 0-1.808.592-3.312 1.776-4.512 1.184-1.216 2.704-1.824 4.56-1.824 1.76 0 3.208.608 4.344 1.824 1.152 1.216 1.728 2.72 1.728 4.512 0 .4-.04.824-.12 1.272H71.12zm-.048-2.4h6.12c-.176-.816-.544-1.424-1.104-1.824-.544-.4-1.168-.6-1.872-.6-.832 0-1.52.216-2.064.648-.544.416-.904 1.008-1.08 1.776zm24.242-1.896h-2.712v4.992c0 .416.104.72.312.912.208.192.512.304.912.336.4.016.896.008 1.488-.024v2.808c-2.128.24-3.632.04-4.512-.6-.864-.64-1.296-1.784-1.296-3.432V8.496h-2.088V5.52h2.088V3.096l3.096-.936v3.36h2.712v2.976zm8.855-3.312c1.312 0 2.392.44 3.24 1.32.864.88 1.296 2.096 1.296 3.648v7.368h-3.096v-6.984c0-.8-.216-1.408-.648-1.824-.432-.432-1.008-.648-1.728-.648-.8 0-1.44.248-1.92.744s-.72 1.24-.72 2.232v6.48h-3.096V.72h3.096v6.144c.752-1.12 1.944-1.68 3.576-1.68zm9.795 7.608c.416 1.504 1.544 2.256 3.384 2.256 1.184 0 2.08-.4 2.688-1.2l2.496 1.44c-1.184 1.712-2.928 2.568-5.232 2.568-1.984 0-3.576-.6-4.776-1.8-1.2-1.2-1.8-2.712-1.8-4.536 0-1.808.592-3.312 1.776-4.512 1.184-1.216 2.704-1.824 4.56-1.824 1.76 0 3.208.608 4.344 1.824 1.152 1.216 1.728 2.72 1.728 4.512 0 .4-.04.824-.12 1.272h-9.048zm-.048-2.4h6.12c-.176-.816-.544-1.424-1.104-1.824-.544-.4-1.168-.6-1.872-.6-.832 0-1.52.216-2.064.648-.544.416-.904 1.008-1.08 1.776zm30.889-4.872h3.289l-3.817 12h-2.951l-2.208-7.272-2.208 7.272h-2.952l-3.817-12h3.289l2.039 7.368 2.185-7.368h2.927l2.185 7.392 2.039-7.392zm14.713 10.512c-1.232 1.216-2.737 1.824-4.513 1.824-1.776 0-3.28-.608-4.512-1.824-1.216-1.232-1.824-2.736-1.824-4.512 0-1.776.608-3.272 1.824-4.488 1.232-1.232 2.736-1.848 4.512-1.848 1.776 0 3.281.616 4.513 1.848 1.232 1.216 1.847 2.712 1.847 4.488 0 1.776-.615 3.28-1.847 4.512zm-6.84-2.136c.624.624 1.399.936 2.327.936.928 0 1.704-.312 2.328-.936.624-.624.937-1.416.937-2.376s-.313-1.752-.937-2.376c-.624-.624-1.4-.936-2.328-.936-.928 0-1.703.312-2.327.936-.608.624-.912 1.416-.912 2.376s.304 1.752.912 2.376zm13.961-6.312c.288-.768.76-1.344 1.416-1.728a4.423 4.423 0 0 1 2.233-.576v3.456c-.944-.112-1.793.08-2.545.576-.736.496-1.104 1.32-1.104 2.472v5.736h-3.095v-12h3.095v2.064zm5.459 9.936V0h3.096v17.52h-3.096zM187.124.72h3.096v16.8h-3.096v-1.416c-.912 1.168-2.208 1.752-3.888 1.752-1.616 0-3-.608-4.152-1.824-1.136-1.232-1.704-2.736-1.704-4.512 0-1.776.568-3.272 1.704-4.488 1.152-1.232 2.536-1.848 4.152-1.848 1.68 0 2.976.584 3.888 1.752V.72zm-5.712 13.248c.64.624 1.44.936 2.4.936s1.752-.312 2.376-.936c.624-.64.936-1.456.936-2.448s-.312-1.8-.936-2.424c-.624-.64-1.416-.96-2.376-.96s-1.76.32-2.4.96c-.624.624-.936 1.432-.936 2.424s.312 1.808.936 2.448z" fill="#fff"/></svg>